<svg xmlns="http://www.w3.org/2000/svg" viewBox="0 0 479.97 331.22"><title>Asset 1</title><g id="Layer_2" data-name="Layer 2"><g id="Layer_1-2" data-name="Layer 1"><path d="M95.84,31.15c-3.95,0-7.27.06-10.6,0C79.79,31,77.6,29,77.43,23.66s-.16-10.65,0-16C77.58,2.21,79.66.11,85.09.08Q119.34,0,153.58,0c23.16,0,46.33.1,69.49.07,7.18,0,9.53,2.41,9.2,9.66-.2,4.49-.14,9-.21,13.49-.09,5.85-2,7.83-7.74,7.92-5,.07-10-.1-15,.06-5.73.18-7.83,2.23-7.88,8q-.16,22.75,0,45.5c0,5.79,2,7.94,7.74,8.22,5.15.25,10.34.25,15.49,0,5-.25,7-2.59,7.2-7.67.15-4.5.16-9,.18-13.49,0-8,1.75-9.75,9.62-9.75q51.25,0,102.5,0c10.33,0,11.72-1.42,11.72-11.87,0-13.83,0-27.67,0-41.5,0-6.49,1.9-8.41,8.23-8.45,5.33,0,10.66,0,16,0,4.53,0,6.74,2.35,6.77,6.81,0,5.33-.09,10.67,0,16,.14,5.58,2.43,7.85,8,8q7.5.19,15,0c5.64-.15,7.67-2.31,7.78-8.09.09-4.83,0-9.67,0-14.5.09-6.19,2-8.13,8-8.2q7.49-.08,15,0c6.16.07,8.1,1.93,8.12,8.05.06,14.67,0,29.33,0,44,0,7.68,2.06,9.73,9.77,9.77,4.5,0,9-.06,13.5,0,5.11.1,7.52,2.26,7.67,7.17.17,5.49.17,11,0,16.48-.18,5.06-2.41,7.25-7.48,7.43s-10.33,0-15.5.08c-5.65.11-7.79,2.27-7.92,8-.1,4.83,0,9.67,0,14.5-.07,5.79-2.42,8.44-8.05,8.48q-23,.16-46,0c-5.72-.05-7.85-2.28-8-7.93-.17-5.16-.17-10.34,0-15.5C387,94.93,389,93.1,394.93,93c4.67-.08,9.33.06,14,0,6.53-.14,8.73-2.37,8.79-8.75,0-4.67.07-9.33,0-14-.1-5.78-2.16-7.92-7.78-8q-7.5-.15-15,0c-5.57.1-7.81,2.31-8,7.95-.14,4.5,0,9,0,13.5,0,7.56-1.88,9.51-9.37,9.52q-32.25,0-64.5,0-20.25,0-40.5,0c-7.3,0-9.44,2.14-9.46,9.58,0,14.5,0,29,0,43.5,0,6.84-1.8,8.67-8.47,8.74-5,.05-10,.12-15,0-5.14-.15-7.27-2.15-7.51-7.33s0-10.33-.09-15.49c-.07-5.78-2.11-7.88-7.79-8q-7.49-.11-15,0c-5.71.09-7.67,2.07-7.79,7.94-.1,4.83.05,9.67-.05,14.5-.13,6.16-2.35,8.29-8.59,8.37-4.83.06-9.66.09-14.49,0-5.87-.12-8.08-2.35-8.21-8.29-.11-5,.06-10-.05-15-.11-5.27-2.46-7.53-7.73-7.58-5,0-10,.16-15,0-5.69-.21-7.91-2.34-8.17-7.94-.24-5.16-.23-10.34,0-15.5.24-5.61,2.47-7.56,8.27-7.64,4.83-.07,9.67.1,14.5-.05,6-.19,8.08-2.34,8.16-8.26.06-4.83.08-9.67,0-14.5-.1-6-2.1-7.94-8.24-8-4.5-.06-9,0-13.5,0-7-.05-9.14-2.19-9.23-9.34-.06-4.83-.05-9.67,0-14.5,0-4.24-2.13-6.68-6.2-7s-7.92-.07-12.46-.07c0,2.35,0,4.29,0,6.24q0,46.25,0,92.5c0,8.54-.82,9.34-9.48,9.34-15.21,0-15,1.52-14.87-14.94.07-7.9-1.1-9-8.8-9.05-10.33,0-20.67,0-31,0-6.22,0-7.72,1.51-7.83,7.61-.06,3.5-.06,7,.06,10.5.13,3.83,2.17,5.76,6.05,5.72q5.25-.06,10.5,0c5.88.06,7.34,1.45,7.35,7.47q.07,34.25,0,68.5c0,3.83,0,7.67,0,11.5.05,7.36,1.16,8.5,8.36,8.52,10.83,0,21.67.17,32.5-.07,5-.11,7.12,1.94,7.07,6.7q-.07,6.24-.22,12.48c-.08,3.24-1.81,4.86-5,4.9-4.16.05-8.33.17-12.49.15s-6.17,2-6.17,6.09c0,3.67,0,7.33,0,11-.07,4.53,1.92,6.8,6.64,6.62,3.83-.15,7.66,0,11.5,0,3.64,0,5.61,1.89,5.72,5.48.13,4.16.13,8.33.09,12.49s-2.05,6.26-6.54,6.19c-11-.17-22-.08-33,0-7.13,0-8.34,1.28-8.4,8.52,0,3.17,0,6.33,0,9.5-.08,4-2.06,6.13-6.24,6-3.66-.09-7.33,0-11-.07-5.48-.07-7-1.57-7.06-7.24-.06-3.5-.08-7,0-10.5.09-4.22-2.15-6.11-6.11-6.21s-7.67-.07-11.5,0c-4.16.09-6.3-2.07-6.34-6q-.17-18,0-36c0-3.94,2-6.17,6.25-6.06q6,.16,12,0c4-.11,5.86,1.93,6,5.71.12,4,0,8,.11,12s1.8,6.27,6.09,6.17c4-.09,8,0,12,0,3.37,0,5.41-1.6,5.48-5.08.09-4.5.07-9,0-13.5,0-3.26-2-4.86-5.07-5-3.32-.17-6.66-.14-10-.07-7.36.15-8.87-1.24-8.87-8.55q0-39.25,0-78.5c0-7.9-1-8.93-8.88-8.93-10.67,0-21.33,0-32,0-5.36,0-7-1.47-7.07-6.75-.28-19.66-.77-17.38,16-17.4,6.88,0,7.91-1,7.95-7.7,0-3.17-.11-6.34,0-9.5.21-4.76-2.23-6.65-6.68-6.63-3.67,0-7.34-.09-11,0-4.27.13-6.12-2.2-6.28-6.07s-.16-8,0-12,2.14-6.17,6.31-6.12c3.83,0,7.67,0,11.5,0,4.1,0,6.18-1.93,6.14-6.09,0-3.83-.06-7.67,0-11.5.1-4.21,2.26-6.44,6.58-6.41,3.83,0,7.67,0,11.5,0,4.12,0,6.13,2.13,6.19,6.17.06,3.83,0,7.67.05,11.5,0,4.27,2,6.49,6.45,6.35,3.5-.12,7-.14,10.5,0,4.62.19,6.85-1.8,6.71-6.49-.1-3.33-.06-6.67,0-10,.1-5.85,1.69-7.45,7.4-7.53,3.67,0,7.33,0,11,0,3.4,0,5.46-1.67,5.51-5.09.12-8.83.07-17.67.07-26.5C96.05,34.26,95.93,33,95.84,31.15Z"/></g></g></svg>