<svg xmlns="http://www.w3.org/2000/svg" viewBox="0 0 436.34 194.52"><defs><style>.cls-1{fill:#fff;}</style></defs><title>uhihiho</title><g id="Layer_2" data-name="Layer 2"><g id="Layer_1-2" data-name="Layer 1"><path d="M262.94,192.09c-19.82,0-39.64,0-59.46,0-4.47,0-7-1.85-7-6.46s0-9.33,0-14c0-4.36,2.3-6.4,6.5-6.46s8.33.06,12.49-.06c5.88-.17,7.33-1.48,7.71-7.41.24-3.81.07-7.65,0-11.48-.13-5.54,1.71-7.59,7.28-7.73,4.33-.11,8.66,0,13-.13s6.38-2.25,6.24-6.65-.1-8.66,0-13c.1-4.68-2.4-6.66-6.77-6.72s-8.66,0-13,0c-4.49,0-6.78-2-6.62-6.73.14-4,.15-8,0-12-.27-6.14-2.16-7.95-8.29-8.09-3.83-.09-7.66,0-11.49,0-5.14-.09-6.93-1.85-7-6.88-.06-4.33.11-8.66,0-13-.15-4.63,2.23-6.71,6.56-7,1.33-.1,2.66-.07,4-.07H293c9,0,10.53,1.5,10.54,10.3,0,3.5,0,7,0,10.49-.08,4-2.13,6.16-6.22,6.19-4.33,0-8.66-.09-13,.05-5.55.18-7.56,2.13-7.57,7.65q-.1,32.48,0,65c0,5.52,1.94,7.29,7.72,7.33,12.49.08,25,0,37.47,0,6.49,0,8.34,1.84,8.43,8.25,0,3.66.07,7.33,0,11-.12,5.88-2,7.69-7.91,7.69H262.94Z"/><path d="M389.88,101.19c12.49,0,25,0,37.46,0,6.78,0,9,2.19,9,9q.06,37.46,0,74.91c0,7-2,9-8.8,9q-36,.19-71.9.34c-10.93,0-12.62-1.7-12.62-12.81q0-34.69,0-69.38c0-9.49,1.65-11.14,10.93-11.14Zm1,30.36c-8.6,0-16.13,7-16.22,15-.1,8.9,6.88,16.52,15.18,16.58,8.9.06,16.45-6.94,16.48-15.28C406.36,139.11,399.18,131.52,390.88,131.55Z"/><path d="M363.49,55.85H332c-8.41,0-9.66-1.22-9.67-9.4,0-3.33,0-6.67,0-10,0-7.1,1.44-8.57,8.39-8.59,12,0,24,0,36,0,10.43,0,11.26-.85,11.27-11.5,0-3.33-.09-6.67.05-10,.18-4.14,2.24-6.43,6.64-6.35,5,.09,10,.08,15,0,4.19-.06,6.15,2.13,6.26,6.1.14,4.83-.08,9.67.18,14.49.28,5.33,2.12,7,7.51,7.22,4.33.15,8.67.14,13,0,4.75-.14,7.3,2,7.32,6.75.07,14,0,28,0,42,0,4.66-2.29,7.16-7,7.19s-9.66.09-14.49,0c-4.45-.12-6.66-2.7-6.77-7-.11-4.5,0-9-.06-13.5-.07-5.43-1.66-7.22-7.16-7.28-11.66-.14-23.33,0-35,0Z"/><path d="M110.62,54.15h-53c-6.69,0-8.35-1.5-8.61-8-.12-3-.11-6,0-9C49.24,30.5,50.89,29,57.48,29c10.33,0,20.67.05,31,0l76,0c6.94,0,8.48,1.53,8.52,8.54,0,3,0,6,0,9-.1,5.92-1.4,7.49-7.38,7.54-14,.13-28,0-42,0h-13Z"/><path d="M327.53,125c0,10-.15,20,.07,29.93.1,4.59-1.67,6.2-6.17,6.11-14.23-.28-13.84,2-13.79-13.65.06-17.29,0-34.58,0-51.88,0-6.74.79-7.5,7.35-7.53,14.16-.08,12.56-.9,12.49,12.58,0,8.15,0,16.29,0,24.44Z"/><path d="M201.49,135.79c0,15.74,0,15.74-15.55,15.74s-15.61,0-15.61-15.65.06-15.69,15.77-15.69C201.35,120.19,201.49,120.33,201.49,135.79Z"/><path d="M301.51,133.62c0,6-.14,12,.06,18,.11,3.26-1.08,4.36-4.3,4.47-11.61.4-11.61.5-11.61-10.92,0-9.5.14-19-.06-28.48-.1-4.37,1.55-5.8,5.88-5.73,12.48.19,9.88-.45,10,10.19.05,4.16,0,8.33,0,12.49Z"/><path d="M10.6,53.18C4.2,53.06-.09,48.5,0,42A11,11,0,0,1,11.2,31.07a11.38,11.38,0,0,1,11,11.24C22.08,48.82,17.27,53.32,10.6,53.18Z"/><path d="M251.9,48.19c-6.49,0-10.84-4.4-10.9-10.93a11,11,0,0,1,10.9-11.19,11.39,11.39,0,0,1,11.32,11C263.3,43.48,258.51,48.22,251.9,48.19Z"/><path class="cls-1" d="M390.88,131.55c8.3,0,15.47,7.55,15.44,16.34,0,8.34-7.58,15.34-16.48,15.28-8.29-.05-15.28-7.68-15.18-16.58C374.75,138.57,382.28,131.59,390.88,131.55Z"/></g></g></svg>