<svg xmlns="http://www.w3.org/2000/svg" viewBox="0 0 247.87 247.84"><title>ugyguyg</title><g id="Layer_2" data-name="Layer 2"><g id="Layer_1-2" data-name="Layer 1"><path d="M123.89,0h113c8.55,0,11,2.49,11,11q0,112.75,0,225.49c0,9.22-2.1,11.32-11.54,11.32q-112.5,0-225,0C2.47,247.82,0,245.34,0,236.5Q0,123.75,0,11C0,2.31,2.33,0,10.9,0ZM35.83,123.93q0,39.75,0,79.5c0,8.07.49,8.57,8.41,8.57h159c8.49,0,9.08-.56,9.09-9q0-45.75,0-91.5,0-33.5,0-67c0-8.06-.92-9-8.81-9-7,0-14,0-21,0h-137c-9.26,0-9.68.42-9.68,9.42Q35.83,84.43,35.83,123.93Z"/><path d="M177,124q0,21.48,0,43c0,7.6-2.27,10-9.68,10q-43,0-85.94,0c-7.71,0-10.53-2.85-10.54-10.58q0-43,0-85.94c0-7.14,2.58-9.72,9.53-9.74l80.42-.23h3c12,.06,13.21,1.28,13.21,13.06Q177,103.79,177,124Z"/></g></g></svg>