<svg xmlns="http://www.w3.org/2000/svg" viewBox="0 0 194.57 225.89"><title>jbubuhgug</title><g id="Layer_2" data-name="Layer 2"><g id="Layer_1-2" data-name="Layer 1"><path d="M0,0H180L90.09,171.93ZM90.08,131.65,147.56,19.09H32.46Z"/><path d="M148.72,225.89c-24.51,0-43.64-19.18-43.68-43.77a44,44,0,0,1,43.87-44.39c24.44-.12,44.41,19.9,44.46,44.58C193.41,206.6,173.64,225.9,148.72,225.89Zm.29-80.33A36.35,36.35,0,0,0,112.55,182c.06,20.12,16.66,36.72,36.56,36.54a36.5,36.5,0,0,0-.1-73Z"/><path d="M194.53,76.07c0,15.16,0,15.17-15,15.16-3.32,0-6.65.1-10-.14-3.63-.26-5.88-2.38-6-6.08-.15-6.14-.13-12.28,0-18.42.06-3.69,2.16-6.09,5.8-6.24,6.45-.26,12.93-.24,19.39,0,3.73.13,5.6,2.65,5.76,6.27C194.64,69.76,194.53,72.92,194.53,76.07Z"/><path d="M176.83,119.89c-6.45-.07-10.78-4.51-10.77-11.06a11,11,0,0,1,11-11.07,11.38,11.38,0,0,1,11.19,11.08C188.27,115.34,183.47,120,176.83,119.89Z"/><path d="M89.56,75.88h-9c-4.63,0-7.28-2.31-7.42-6.91-.19-6.32-.18-12.66,0-19,.11-4.55,2.73-7.09,7.27-7.19,6.16-.14,12.32-.16,18.48,0,4.52.13,7.1,2.63,7.15,7.27.08,6.15.17,12.3,0,18.45-.16,5.15-2.3,7.13-7.46,7.33C95.56,76,92.56,75.88,89.56,75.88Z"/><path d="M148.84,202.72c-3.66,0-7.33.08-11,0-5.33-.15-8.4-2.58-8.6-7.71-.31-8.14-.23-16.31,0-24.46.15-4.69,3.2-7.41,7.74-7.57,8-.27,16-.26,24,0,4.84.15,7.75,3.1,7.86,8,.19,8,.27,16-.07,24-.23,5.31-3.1,7.65-8.45,7.81C156.5,202.81,152.67,202.72,148.84,202.72Z"/></g></g></svg>