<svg xmlns="http://www.w3.org/2000/svg" viewBox="0 0 252.36 268.6"><title>6767676</title><g id="Layer_2" data-name="Layer 2"><g id="Layer_1-2" data-name="Layer 1"><path d="M54.33,0C65,0,75.66,0,86.32,0c6.12,0,7.73,1.67,7.83,7.69.07,3.66,0,7.33,0,11,0,6,1.71,7.77,7.66,7.79,12,0,24,0,36,0,8.19,0,9.34,1.13,9.34,9.1,0,3.67-.09,7.33,0,11,.13,4.65-2.26,6.73-6.67,6.82s-9,.09-13.49.08c-4.11,0-6.2,2.12-6.3,6.11-.12,4.66-.13,9.33,0,14,.12,4,2.32,6.07,6.38,6.06h13.49c4.37,0,6.36-2.31,6.38-6.54,0-4.5,0-9,.09-13.49.07-4.26,2.17-6.33,6.56-6.31,13.49.08,27,0,40.49,0,4.11,0,6.2,1.93,6.2,6.06,0,4.66-.07,9.33,0,14,.09,4.42-2.23,6.44-6.38,6.57-4.33.13-8.67,0-13,.09-5.4.17-6.87,1.67-7,6.89-.07,4.16-.08,8.33,0,12.49.1,5,1.86,6.76,7,6.88,4.16.1,8.33,0,12.49,0,4.43,0,6.8,1.92,6.8,6.62q-.07,46.73,0,93.47c0,4-1.73,6.28-6,6.26-4.49,0-9,.27-13.46,0-6-.33-7.19-1.64-7.21-7.61,0-15.66,0-31.32,0-47,0-6,0-12,0-18,0-4.66-2.19-7.07-7.12-6.83-4.16.2-8.33.12-12.49,0-4.64-.11-6.74,2.26-6.81,6.68s-.09,8.66,0,13c.06,4.57-2.1,6.76-6.68,6.69-4.16-.06-8.33,0-12.5,0-5.85-.08-7.62-1.85-7.65-7.9-.06-12.16,0-24.32,0-36.49,0-7.38-1.36-8.72-8.74-8.76-3.67,0-7.33,0-11,0-4.54,0-6.71-2.22-6.61-6.8.09-4.16.14-8.34,0-12.49-.22-5.36-2-7-7.43-7.18-3.66-.09-7.33,0-11,0-6.55-.11-8.33-1.86-8.35-8.33,0-12.33,0-24.66,0-37,0-6.22-1.67-7.94-8-8-12.33-.07-24.66,0-37,0-6.46,0-7.92-1.5-8-7.91,0-3.83,0-7.66,0-11.49.07-5.5,1.58-7.16,7.17-7.22C32.34-.05,43.33,0,54.33,0Z"/><path d="M221.17,242.36v-6.47q0-106.21,0-212.43c0-1.67-.06-3.34,0-5,.56-9.61,2.94-11.89,12.37-11.93,3.16,0,6.34.17,9.49,0,4.95-.33,7.59,2.1,8.22,6.72a104,104,0,0,1,1,12.9c.12,13.82.06,27.65,0,41.48q-.08,88.47-.2,176.94a166.06,166.06,0,0,1-.89,17.39c-.5,4.66-3.46,6.7-8.31,6.67q-32-.19-64,0c-4.52,0-5.88-2-5.81-6.05.08-4.66.11-9.33,0-14-.11-4.39,1.67-6.31,6.24-6.25C193,242.47,206.68,242.36,221.17,242.36Z"/><path d="M33,231.53c-7.49,0-15,0-22.46,0-5.94,0-8.36-2.24-8.38-8q-.1-38.44,0-76.87c0-5.72,2.17-7.87,7.82-8,5-.15,10-.14,15,0,6.46.13,8.31,2,8.33,8.4,0,14.48,0,29,0,43.43,0,8.05,2,10.07,10,10.13,4.49,0,9-.06,13.48,0,5.33.1,7.29,1.91,7.44,7.13q.24,8.23,0,16.47c-.15,5.46-2.14,7.31-7.74,7.36C48.68,231.58,40.86,231.52,33,231.53Z"/><path d="M106.83,207.61c-7.66,0-15.33.13-23,0-5.74-.13-7.72-1.75-7.8-7.39-.23-16.14-.13-32.29,0-48.43,0-4,2.53-6.09,6.44-6.17,5.83-.12,11.66-.08,17.49,0,4.73,0,7,2.69,7,7.26.06,5-.05,10,0,15,.12,6.44,2.3,8.58,8.83,8.7,4.5.08,9,0,13.49,0,6.17,0,8.54,2.25,8.63,8.29q.11,7.23,0,14.47c-.09,6-2.57,8.37-8.67,8.41-7.49.05-15,0-22.48,0Z"/><path d="M31.17,108.78c0,15.25,0,15.25-15,15.25C0,124,0,124,0,107.94,0,93,.34,92.69,15.32,92.69,31.17,92.69,31.17,92.69,31.17,108.78Z"/><path d="M49.3,52.63C49.33,68,49.33,68,33.84,68c-3,0-6-.26-9-.32-4.61-.09-6.58-2.76-6.67-7-.13-5.65-.11-11.3,0-16.95.08-4.39,2.57-6.83,6.85-7,5.81-.21,11.63-.18,17.45,0,4.31.12,6.75,2.45,6.8,6.91C49.33,46.65,49.3,49.64,49.3,52.63Z"/></g></g></svg>