<svg xmlns="http://www.w3.org/2000/svg" viewBox="0 0 315.54 224.79"><title>oijioj</title><g id="Layer_2" data-name="Layer 2"><g id="Layer_1-2" data-name="Layer 1"><path d="M219.51,84.78c19.75,1.45,16.84.81,17-13.72.07-8.17-.06-16.33,0-24.5.08-6.26,1.5-7.57,7.72-7.62,3,0,6-.05,9,0,5.51.11,6.73,1.31,6.74,6.86,0,15,0,30,0,45q0,2,0,4l1.58.44c.47-1.77,1.3-3.52,1.36-5.3.23-7.1.64-7.4,7.84-7.37,4.07,0,5.57,1.51,5.47,5.64-.17,7,3.31,9.45,9.92,7,1.27-.46,2.54-3,2.54-4.52,0-6.55-1.27-8.49,8-8.06,4.09.19,5.26-1.75,5.18-5.4-.11-5.16.11-10.34-.09-15.5-.14-3.43,1-4.71,4.56-4.72,8.51,0,8.51-.18,8.51,8.46,0,16.67,0,33.33,0,50,0,3.54-.2,6.13-5,5.91-8.24-.38-8.35-.21-8.31-6.14,0-6.49-.08-6.63-6.66-6.64-4.83,0-9.67-.05-14.5,0-5.84.11-3.86,4.61-4.18,7.74s.94,5.14,4.55,4.72c.82-.09,1.67.06,2.5,0,4.23-.42,5.93,1.21,5.85,5.7-.24,13.33,0,26.67-.16,40-.07,4.3,1.3,6.09,5.71,5.87,5.15-.25,10.34.09,15.5-.09,5.32-.19,4.68,3.43,4.71,6.78s.32,6.69-4.64,6.26c-.5,0-1,0-1.5,0-5.93.08-9.51,6.12-6.21,11,.8,1.19,3.46,1.5,5.29,1.57,6.29.25,9.75,6,6.51,11.36-.58,1-2.44,1.58-3.74,1.62-5.33.18-10.67.24-16,0-4-.16-5.72,1.24-5.64,5.46.13,7-3.95,9.72-10.69,7.17-1.13-.43-2-2.78-2.14-4.3-.49-8-.38-8.11-8.32-8.21-3.41,0-4.87-1.28-4.8-4.7.11-5.5.1-11,0-16.5s3.83-4.73,7.3-4.88c3.68-.17,6.18.58,5.94,5.13-.2,3.81-1.32,8.31,5.44,8,7.05-.33,7.1-.23,7.25-7.29.09-4.19-1.57-5.55-5.59-5.54-7.32,0-7.32-.15-7.32-7.41q0-18.5,0-37c0-6.86,0-6.86-7.08-6.87-4.83,0-9.67-.1-14.5,0-3.79.1-4.55-2.12-4.22-5.16s-1.7-7.54,4-8c.5,0,1,0,1.5,0,7.13-.17,9.22-2.83,7.07-9.8-.38-1.23-2.9-2.45-4.49-2.54-4.64-.25-9.32.07-14,.17-6,.13-7.41,1.4-7.45,7.36-.08,10.5,0,21,0,31.5,0,6.4-1.22,7.66-7.47,7.79-3.33.07-6.67,0-10,0-4.08-.05-6.1-2.22-6.16-6.24-.05-3.5-.14-7,0-10.5.19-4.68-1.95-6.77-6.58-6.61-3,.1-6-.09-9,0-6,.23-7.34,1.55-7.44,7.42q-.08,4.75,0,9.5c.07,4,2,6.18,6.18,6.11q5.75-.1,11.5,0c3.6.07,5.58,1.95,5.59,5.61q0,17.75,0,35.5c0,3.58-1.75,5.65-5.47,5.68-4.17,0-8.33.07-12.5,0-3.65-.08-5.45-2.11-5.49-5.71,0-3.83,0-7.67,0-11.5s-1.69-6-5.7-5.92c-3.83,0-7.67.05-11.5,0-4-.06-5.76,2.06-5.78,5.87s-.05,7.33,0,11c.06,4.06-1.73,6.3-5.93,6.3H79.58c-3.84,0-5.9-1.7-5.77-5.77.11-3.65-.15-7.32,0-11,.3-5.86,1.28-6.74,7.3-6.75,17.5,0,35,0,52.5,0,9.21,0,9.84-.65,9.85-10,0-13,0-13-12.8-13-1.83,0-3.67,0-5.49-.15-3.13-.24-4.92-2-5-5.13-.09-4.33-.14-8.67,0-13,.14-4,2.7-5.27,6.42-5.25,10.67.07,21.33.06,32,0,6.84,0,8.13-1.36,8.19-8.2,0-2.67,0-5.33,0-8,.08-5.66,1.31-7,7.09-7.24,3-.15,6,0,9-.06,6-.09,7.11-1.11,7.05-7-.21-20.28-.53-40.56-.81-60.84,0-1.17,0-2.33,0-3.5.11-4.54-2.28-7-6.62-7-15.33-.11-30.66-.07-46,0-4.37,0-6.77,2.3-6.73,6.88s-.08,9,0,13.46c.14,7-2.51,9.75-9.51,9.65-4.33-.07-8.66-.16-13-.09-5.24.08-7.57,2.49-7.6,7.75,0,4.67.23,9.34,0,14C99.49,88.17,97.36,90,91,90.1c-4,0-8,0-12,0-8,0-9.51-1.51-9.52-9.74q0-35.5,0-71c0-.83,0-1.67,0-2.5C69.65,2.44,71.91.09,76.36,0,79,0,81.69.1,84.35.1l127-.1c6.12,0,8.15,2,8.16,8.58q.05,35,0,70C219.51,80.56,219.51,82.54,219.51,84.78Z"/><path d="M31.06,137.63q0,18.21,0,36.42c0,5.29-1.43,6.93-6.67,7-5.82.11-11.64.1-17.46,0C1.75,181,0,179.28,0,174.22q0-37.17,0-74.34C0,94.6,1.53,93,6.8,93c6-.09,12,0,17.92,0,4.67-.05,6.51,2.26,6.47,6.8-.1,12.63,0,25.27,0,37.91Z"/><path d="M144.63,73.1c9,0,18,.13,27-.05,4.76-.1,6.71,1.9,6.44,6.57a74.69,74.69,0,0,0,0,9.48c.34,4.86-2.06,6.55-6.56,6.52-10-.07-20,0-30,0-7,0-8.05,1-8,8.15.14,16.2-.06,14.08-14.51,14.16-7.17,0-8-.84-8-8q0-14.47,0-28.95c0-7,.89-7.85,7.65-7.85Z"/><path d="M69,115.58c0,5.48-.2,11,.07,16.44.17,3.43-1.09,5-4.4,5-7.47,0-14.95.08-22.42,0-2.91,0-4.36-1.48-4.31-4.73q.24-16.69,0-33.38C37.9,95.49,39.17,94,42.49,94c7.46,0,14.93,0,22.39,0,3,0,4.39,1.35,4.23,4.66-.27,5.63-.07,11.28-.07,16.93Z"/><path d="M255,202.86c0,4,0,8,0,12,0,1,.24,2.22-.23,2.94-3.32,5-8.45,2.29-12.81,2.69-3.08.28-5-1.5-4.93-4.86,0-2.49-.15-5,0-7.48.25-3.94-1.57-5.33-5.36-5.21-13.59.42-12.5-.26-12.5-13.06,0-5.32,0-10.65,0-16,0-5.85.92-6.77,6.53-6.76,12.85,0,11.41-1.16,11.48,11,0,5.58,1.21,6.81,6.73,6.82,11.87,0,11.09-1.42,11.08,11.46Q255,199.61,255,202.86Z"/><path d="M89.83,158.1c-12.33,0-12.33,0-12.33-12.24,0-1.66,0-3.32,0-5,0-3.69,2-5.59,5.49-5.7q7.22-.22,14.46,0c3.78.12,5.71,2.17,5.56,6.11-.12,3.32,0,6.65,0,10-.05,5.53-1.24,6.74-6.69,6.83C94.15,158.13,92,158.1,89.83,158.1Z"/></g></g></svg>