<svg xmlns="http://www.w3.org/2000/svg" viewBox="0 0 271.73 125.24"><title>gygygyg</title><g id="Layer_2" data-name="Layer 2"><g id="Layer_1-2" data-name="Layer 1"><path d="M194.13,31c12.33,0,24.66,0,37,0,7.4,0,9.43-2.11,9.46-9.55,0-4.67-.09-9.33,0-14,.14-5,2.37-7.28,7.41-7.4,5.5-.13,11-.06,16.5,0,4.67,0,7.11,2.46,7.13,7.12,0,15.83.14,31.65,0,47.48,0,5.56-2.64,7.52-9.47,7.52-18,0-36-.09-54-.13-6.5,0-13-.05-19.5,0-7.74.08-9.92,2.18-9.94,9.75q-.07,21.25,0,42.49c0,7.66-1.94,9.72-9.68,9.74-4.67,0-9.33.07-14,0s-7.17-2.48-7.33-7.09c-.18-5.32-.09-10.66-.21-16-.13-5.63-2-7.65-7.41-7.84-5.16-.18-10.33-.18-15.49,0-5.33.18-7.4,2.37-7.54,7.82-.13,5,.1,10-.1,15-.24,6.08-2.32,8.09-8.3,8.11q-22.75.09-45.49,0c-5.91,0-8.2-2.19-8.43-8.09-.19-5-.18-10,0-15,.21-5.9,2.36-7.9,8.45-8,4.83-.11,9.67.05,14.5-.05,5.7-.12,7.9-2.29,8-7.85.08-5.33,0-10.66,0-16,0-4.23-2.28-6.57-6.42-6.73-5-.19-10-.09-15-.06-6.93,0-9.47-2.31-9.56-9.13-.07-4.83-.17-9.67.06-14.49.26-5.31,2.61-7.43,7.91-7.52,4.66-.08,9.33,0,14,0,7-.08,9-2,9-8.9,0-4.5,0-9,0-13.5C85.86,2.23,88.09.09,94.63,0q7,0,14,0c5.9,0,8.36,2.19,8.41,8,.11,14.16.18,28.33-.12,42.49-.19,8.82,2.17,11.61,10.8,11.38,4.16-.11,8.33.06,12.49-.07,5.09-.16,7.2-2.28,7.35-7.4.15-5.32,0-10.66.22-16,.26-5.52,2.29-7.4,7.85-7.43C168.47,31,181.3,31,194.13,31Z"/><path d="M235.1,101.88c10.16,0,20.33.07,30.49,0,4.14,0,6.26,1.46,6,5.86-.18,3.49-.1,7,0,10.49.07,3.34-1.53,5-4.8,5q-31.48,0-63,.06c-3.78,0-5.43-1.78-5.28-5.56.15-3.49.12-7,0-10.48-.13-3.94,1.91-5.31,5.55-5.29C214.44,101.91,224.77,101.88,235.1,101.88Z"/><path d="M16.51,62.2c-2.83,0-5.66.07-8.49,0C2.57,62,.31,60,.14,54.71q-.28-9,0-18C.31,31.51,2.67,29.24,8,29.09c5.82-.16,11.66-.17,17.48,0,5.07.16,7.38,2.41,7.55,7.37.2,6.14.2,12.3,0,18.45C32.87,60,30.72,62,25.51,62.18,22.51,62.29,19.51,62.2,16.51,62.2Z"/><path d="M33.52,109.34c-.13,2.12-.26,4.45-.4,6.77-.48,7.77-1.85,9.06-9.79,9.09-5.16,0-10.33.09-15.49,0S.35,123,.17,118c-.23-6.15-.22-12.33,0-18.48.16-5,2.52-7.28,7.53-7.44,6-.19,12-.2,18,0,5,.18,7.07,2.45,7.41,7.54C33.27,102.81,33.37,106,33.52,109.34Z"/><path d="M258.5,94c-11.92,0-11.92,0-11.92-11.83,0-1.16,0-2.32,0-3.48.07-7.5,1.23-8.67,8.66-8.69,2.82,0,5.64,0,8.46,0,5.58.09,6.92,1.44,7,7.17.06,3,0,6,0,9C270.67,93,269.63,94,263,94Z"/></g></g></svg>