<svg xmlns="http://www.w3.org/2000/svg" viewBox="0 0 336.71 381.22"><title>7777</title><g id="Layer_2" data-name="Layer 2"><g id="Layer_1-2" data-name="Layer 1"><path d="M307.72,359.65c0-13.27.05-26.08,0-38.89,0-3.81-2.27-5.79-6-5.85-5-.08-10,.1-15-.08-5.22-.18-7.12-2.22-7.22-7.46-.08-4.5.1-9-.06-13.5-.21-5.67-2-7.46-7.56-7.64-4.49-.15-9-.14-13.49,0-5.24.17-7.22,2-7.5,7.25-.24,4.65-.2,9.33,0,14,.16,4.84-2.25,7.18-6.81,7.33-5,.17-10,.15-15,0-4.35-.13-6.76-2.53-6.84-6.94-.09-4.66,0-9.33-.08-14-.14-5.64-2.46-7.77-8-7.75-4.66,0-9.33,0-14-.07-4.26-.07-6.41-2.36-6.44-6.59,0-5-.09-10,0-15s2.31-7.12,7.49-7.23c4.66-.1,9.33-.08,14,0s6.83-2.25,6.93-6.66q.17-7.49,0-15c-.09-4.48-2.51-6.61-7-6.54-4.83.07-9.67.14-14.5,0s-6.83-2.28-6.91-7.21c-.08-4.66-.06-9.32,0-14,.07-5.83,1.88-7.69,7.88-7.73,13.33-.08,26.66,0,40,0,7.61,0,9.11-1.47,9.11-8.95q0-46.74,0-93.48c0-11,.69-11.74,11.47-11.74,3.5,0,7,.09,10.5-.05,4.1-.17,6.6-2.36,6.73-6.53.17-5.16.16-10.33,0-15.48-.15-4.15-2.39-6.36-6.74-6.29-4.82.09-9.64.11-14.46,0-5.26-.14-7.09,2.94-7.25,7.52-.15,4.33,0,8.66-.06,13-.06,6.18-1.8,7.92-8.09,8-4.33.06-8.67.1-13,0-5.26-.14-7.46-2.07-7.51-7.21q-.22-21.49,0-43c0-5.18,2.18-7.09,7.49-7.24,4.66-.13,9.33,0,14-.07s7-2.37,7-7.15-.12-9.34.05-14C250.85,2,252.82.15,258,.07c4.83-.08,9.67-.1,14.5,0s6.91,2.21,7,7.1c.12,4.5,0,9,0,13.5.07,5.78,2,7.82,7.83,7.85,13.33.08,26.66,0,40,0,7.71,0,9,1.27,9.15,8.88.08,4.16.06,8.32,0,12.49-.08,5.59-1.87,7.26-7.62,7.35q-7.24.11-14.48.3c-4,.11-6.16,2.1-6.14,6.22,0,5.16.1,10.31,0,15.47-.08,4.83,2.86,6.45,7,6.59,4.83.16,9.66.08,14.5,0,4.5,0,6.81,2.05,6.75,6.66-.06,4.83,0,9.66,0,14.49-.06,5.66-1.75,7.46-7.5,7.5-12.83.09-25.66,0-38.49,0-10,0-11,1-11,10.74q0,47,0,94c0,8-1.75,9.74-9.58,9.77-4,0-8,.07-12,0-4.26-.09-6.79,2-7,6.12a150.88,150.88,0,0,0,0,16c.21,4.17,2.72,6.13,7,6.11,14.33-.06,28.66,0,43,0,4.54,0,6.73-2.3,6.75-6.78,0-4.67-.09-9.33,0-14,.17-5.67,2-7.45,7.58-7.54,4.66-.08,9.33-.13,14-.06,5.19.07,7.34,2.2,7.34,7.3q0,69.23-.06,138.45c0,4.6-2.1,6.41-6.25,6.46q-14.74.17-29.49.17-39.74,0-79.48,0c-2.16,0-4.34,0-6.49-.22-3.42-.33-5.57-1.92-5.37-5.78.13-2.66-.07-5.33,0-8,.19-5.9,1.44-7.21,7.49-7.31,7.66-.13,15.33,0,23,0h64.49C305.36,359.87,306.17,359.76,307.72,359.65Z"/><path d="M193.59,148.51c0-12.31.1-24.62,0-36.92-.06-4.7,2.09-6.71,6.58-6.7,6.14,0,12.28,0,18.42,0,4.4,0,6.23,2.21,6.22,6.52q-.1,37.66,0,75.32c0,4.2-2,6.21-6,6.28q-9.48.16-19,0c-4.2-.07-6.28-2.15-6.24-6.58C193.67,173.79,193.59,161.15,193.59,148.51Z"/><path d="M179.61,149c0,12.14,0,24.28,0,36.42,0,6.05-1.23,7.52-7.07,7.6q-8.48.12-17,0c-5.26-.08-7-1.75-7-6.79,0-24.95,0-49.9-.05-74.84,0-4.44,2-6.46,6.27-6.49,6.14,0,12.28,0,18.42,0,4.63-.06,6.57,2.16,6.53,6.73-.1,12.47,0,24.94,0,37.41Z"/><path d="M164.46,53.17c-5.82,0-11.64-.07-17.46,0-4.57.07-6.81-2.13-6.8-6.61,0-12.14,0-24.27.16-36.41,0-3.32,1.8-5.26,5.3-5.27,4.49,0,9,0,13.47,0,3.8,0,5.38,2.15,5.43,5.66.06,4,.08,8,0,12-.07,4.17,2.1,6.16,6,6.3s7.65.12,11.48,0c4.65-.1,6.68,2.11,6.52,6.71-.13,3.65-.12,7.32,0,11,.16,4.7-2.24,6.65-6.69,6.64H164.46Z"/><path d="M118.59,36.13c0,15.43,0,15.43-15.37,15.42-3,0-6,.07-9-.06-4.36-.19-6.74-2.54-6.79-6.94-.07-5.81-.08-11.62,0-17.43.07-3.88,2.12-6.34,6.08-6.5,5.79-.23,11.61-.42,17.4-.12s7.49,2.33,7.61,8.16C118.63,31.15,118.58,33.64,118.59,36.13Z"/><path d="M264.79,349.21c-6.43-.1-10.74-4.58-10.69-11.13a11,11,0,0,1,11.1-11,11.37,11.37,0,0,1,11.12,11.15C276.25,344.74,271.45,349.31,264.79,349.21Z"/><path d="M33.52,46.36c-.13,2.14-.26,4.46-.4,6.78-.46,7.61-1.88,9-9.31,9.06-5.33,0-10.66.09-16,0S.35,60,.17,55c-.22-6.15-.22-12.33,0-18.48.17-5,2.53-7.26,7.55-7.41,6-.19,12-.2,18,0,5,.18,7.05,2.47,7.38,7.56C33.27,39.85,33.37,43,33.52,46.36Z"/></g></g></svg>