<svg xmlns="http://www.w3.org/2000/svg" viewBox="0 0 155.46 240.04"><title>huhuh</title><g id="Layer_2" data-name="Layer 2"><g id="Layer_1-2" data-name="Layer 1"><path d="M82.43,121.68H49c-5.5,0-11,0-16.49,0-6.11-.07-8.14-2-8.24-8-.08-4.83-.1-9.66,0-14.48.12-5.92,2.17-8,8.17-8.17,5-.14,10,0,15,0,6.29-.06,8.28-2,8.3-8.46q.06-35.73,0-71.45C55.76,1.76,57.5,0,66.8,0c3.66,0,7.33,0,11,0,8,.06,9.93,2,10,10.12,0,13.49,0,27,0,40.47,0,8.59,1.64,10.21,10.19,10.23,4.5,0,9-.06,13.49,0,5.75.11,7.79,2.16,7.8,7.91,0,17.82,0,35.64,0,53.46,0,6.88,2.36,9.31,9.25,9.42,6.16.1,12.33-.06,18.49.05s8.36,2.32,8.41,8.5c0,5.16.06,10.33,0,15.49-.07,5.89-2.21,8-8.24,8.12s-12-.05-18,0c-7.55.12-9.88,2.49-9.92,9.88,0,4.66.09,9.33,0,14-.15,5.47-2.63,8.05-8,8.08q-28.48.12-57,0c-5.59,0-7.94-2.42-8-7.88s-.07-10.66,0-16c.07-5.57,2.21-8,7.8-8.17,6.32-.24,12.66-.07,19-.13,7-.07,9.34-2.34,9.36-9.19C82.45,143.83,82.43,133.17,82.43,121.68Z"/><path d="M95.77,201.79h49.46c6,0,7,1,7,6.89,0,12,1.78,12.23-12.16,12.2-31.14-.07-62.29.07-93.43.13-6.7,0-7.61.76-7.53,7.42.16,13-.22,11.54-11.76,11.57-7.16,0-14.32-.07-21.48,0-3.76.05-5.28-1.55-5.54-5.33C-.6,221.18-.51,221,12.85,220.84c5.86-.06,6.57-.75,6.58-6.68,0-14,0-28,0-42,0-7.63.73-8.33,8.15-8.35,12,0,11.61-1.06,11.51,11.76q-.07,9.49,0,19c.05,6.47.82,7.24,7.2,7.25q24.73,0,49.46,0Z"/><path d="M17.26,61.13c0-11,.07-11.12,10.94-11.12,1.82,0,3.65,0,5.47,0,3.79.09,5.84,1.87,5.76,5.85-.08,3.81,0,7.63-.05,11.44,0,3.22-1.74,4.9-4.94,5s-6.28.12-9.42,0c-7.11-.2-7.71-.84-7.76-7.72C17.25,63.45,17.26,62.29,17.26,61.13Z"/><path d="M18.26,144.74c0-1.66.06-3.32,0-5-.16-3.77,1.88-5.55,5.37-5.7,3.81-.16,7.63-.14,11.44,0,3.25.11,5.33,1.67,5.34,5.21,0,4,0,8,0,11.94,0,3.52-1.95,5.09-5.33,5.11s-6.62.09-9.92,0c-5.89-.15-6.82-1.15-6.88-7.11C18.25,147.73,18.26,146.24,18.26,144.74Z"/></g></g></svg>