<svg xmlns="http://www.w3.org/2000/svg" viewBox="0 0 317.23 232.23"><title>uhuhuhuh</title><g id="Layer_2" data-name="Layer 2"><g id="Layer_1-2" data-name="Layer 1"><path d="M156.06,125.22c-8.17,0-16.34.18-24.49-.08-4.24-.13-5.7,1.61-5.56,5.58.13,3.49-.06,7,0,10.49.1,6.1-1.71,8-8,8-3.67,0-7.33,0-11,0-4,.09-6.21,2-6.14,6.17s.09,8.33,0,12.5-2.17,6.5-6.55,6.47c-4.17,0-8.33,0-12.5,0-4.66,0-6.61-2.44-6.58-6.87,0-3,0-6,0-9,0-8.34-.93-9.28-9.06-9.29-2.67,0-5.33,0-8,0-6.45-.05-8-1.6-8.1-7.88,0-2.83,0-5.67,0-8.5,0-7.95,1.18-9.1,9.35-9.12,10.67,0,21.33,0,32,0,7.74,0,9.1-1.33,9.14-9,0-11.15,0-22.3,0-33.46,0-6.53,1.48-8,7.88-8.06q19.5-.07,39,0c6.44,0,8,1.65,8.12,7.93,0,3,0,6,0,9,.12,6.87,2.06,8.78,9.07,8.88q8,.11,16,0c7.46-.07,9.42,1.85,9.42,9.38,0,2.67,0,5.33,0,8,0,6.92-1.82,8.72-9,8.76C172.73,125.25,164.4,125.22,156.06,125.22Z"/><path d="M269.36,229.22c-13.66,0-27.32-.14-41,.08-4.82.08-6.5-1.74-6.4-6.46.29-13.18-1.69-13,12.59-12.73,4.79.1,6.47-2,6.53-6.56.17-12,.28-12.19,12.28-12.38,5.08-.08,7-2.14,6.67-6.92,0-.33,0-.67,0-1,.07-11,.07-11-11.09-11-7.84,0-7.9-.07-7.91-7.76q0-.75,0-1.5c0-9.42-.35-9.77-9.88-9.74a28.83,28.83,0,0,1-4.49,0c-8-1.25-3.77-7.55-4.5-11.63-.59-3.33-.91-7.43,4.6-7.42,1.66,0,3.33-.15,5-.15q29.23,0,58.47,0c7.27,0,8,.81,7.82,8.11-.17,10,2.48,11.51-11.63,11.11-6.24-.18-7.21.94-7.21,7.18q0,21.49,0,43c0,5.75.86,6.57,6.7,6.59,8.33,0,16.66.12,25,0,4.43-.08,6.2,1.69,6.28,6.2.28,15.81-.5,12.86-12.34,13S281.19,229.22,269.36,229.22Z"/><path d="M208.09,184.72c0,13.33,0,26.66,0,40,0,6.36-1.07,7.49-7.56,7.52-3.17,0-6.33,0-9.5,0-5.73,0-7.12-1.32-7.14-7-.06-14.83,0-29.65,0-44.48,0-12.49,0-25,0-37.48,0-5.94,1.1-7,6.93-7.17,3.48-.09,7-.1,10.46,0,5.81.16,6.89,1.27,6.9,7.18,0,13.82,0,27.65,0,41.47Z"/><path d="M175.09,184.2c0,13.49,0,27,0,40.48,0,6.36-1.08,7.5-7.55,7.53q-4.5,0-9,0c-6.45,0-7.65-1.14-7.67-7.5,0-14.83,0-29.65,0-44.48,0-12.33,0-24.66,0-37,0-5.95,1.11-7,6.92-7.18,3.48-.09,7-.1,10.46,0,5.83.17,6.9,1.26,6.92,7.16,0,13.66,0,27.31,0,41Z"/><path d="M71,207.27c-6.15,0-12.31,0-18.46,0-3.55,0-5.71-1.7-5.73-5.42,0-12.63-.07-25.26,0-37.88,0-3.15,1.92-4.86,5.12-4.89,4.49,0,9,0,13.47,0,3.77,0,5.47,2,5.55,5.55.08,3.82,0,7.65,0,11.48.08,5.17,1.67,6.79,6.9,6.94,3.66.11,7.32.05,11,0,4.1,0,6.17,1.9,6.12,6.07,0,3.83,0,7.65,0,11.48-.08,5.06-1.83,6.73-7,6.76-5.65,0-11.31,0-17,0Z"/><path d="M148,33.22c0,9-.18,18,.08,27,.12,4.3-1.39,6.2-5.71,6.06-4-.13-8-.09-12,0-3.69.07-5.46-1.38-5.44-5.32q.15-27.72,0-55.44c0-3.82,1.41-5.55,5.25-5.45,4.15.11,8.31.16,12.45,0s5.56,1.78,5.5,5.74c-.14,9.15,0,18.31,0,27.46Z"/><path d="M15.59,189.84c-2.66-.15-5.31-.26-8-.45C1.8,189,.14,187.22.06,181.28c-.07-5-.09-10,0-15,.1-5.34,2.29-7.73,7.48-7.89q8.22-.25,16.45,0c5,.15,7.06,2.3,7.18,7.54s.12,10.64,0,16S29.36,189,24,189.38C21.23,189.58,18.41,189.69,15.59,189.84Z"/><path d="M175.36,73.22c9.19,0,9.19,0,9.19,9.44,0,8.81-.26,9.06-9.32,9.07S166,91.67,166,81.06C166,73.22,166,73.22,175.36,73.22Z"/></g></g></svg>