<svg xmlns="http://www.w3.org/2000/svg" viewBox="0 0 225.21 158.43"><title>uhuhuh</title><g id="Layer_2" data-name="Layer 2"><g id="Layer_1-2" data-name="Layer 1"><path d="M62.06,65c0-7.5-.05-15,0-22.49.05-5.57,2.34-8,7.86-8.06q23.24-.15,46.48,0c5.46,0,7.55,2.08,7.61,7.61q.25,23.48.13,47c0,4.92-2.54,7.25-7.48,7.35s-9.67-.09-14.49.06c-6.89.22-8.89,2.32-9,9.13,0,4.16,0,8.32,0,12.49.05,7.23-1.91,9.3-9,9.34-4.5,0-9-.12-13.49,0-6.25.22-8.31,2.35-8.46,8.62-.11,4.83,0,9.66,0,14.49-.09,5.44-2.19,7.68-7.47,7.81s-10.67.14-16,0-7.47-2.3-7.64-7.76c-.15-4.83,0-9.66-.05-14.49-.06-6.51-2.1-8.57-8.73-8.68-4.83-.09-9.67.07-14.49,0C2.64,127.21.22,124.8.1,119.6c-.12-5-.15-10,0-15,.22-6.21,2.35-8.33,8.68-8.37q21.24-.13,42.48.06C59.88,96.39,62,94.44,62.05,86Q62.07,75.46,62.06,65Z"/><path d="M225.06,47.7c0,13.82-.11,27.65.07,41.47.06,4.25-1.37,6.15-5.73,6.07C205.66,95,205.71,97,206,82.84c.11-5.45-1.26-6.61-6.91-6.62-12.55,0-12.26,1.19-12.07-12.22.08-5.6-1.17-6.67-6.75-6.79h-1c-11-.07-11-.07-11.05,10.94,0,7.83-.25,8.05-8.24,8.06h-1c-9.63,0-9.75.13-9.77,9.73a30.2,30.2,0,0,1-.22,6c-.79,3.85-4.08,3.65-6.8,3.2-4.07-.67-9.3,2.68-12-3.08-.45-1-.17-2.3-.18-3.46q0-31.23,0-62.46c0-6.25,1-7,7.39-7,11.23,0,12-1.85,11.8,12.08-.09,6,.9,6.83,7,6.84q21.23,0,42.47,0c6.55,0,7.31-.79,7.34-7.58,0-8.16.12-16.32,0-24.48C205.93,2,207.36.14,211.46.06,227.9-.24,225,0,225,12.73,225.1,24.39,225.06,36,225.06,47.7Z"/><path d="M54.22,72c.58,18.28-1.7,14.68-16.14,15.71a35,35,0,0,1-4-.28c-10.42-.47-11.06-1.13-11.06-11.76,0-3.82-.1-7.65,0-11.46.19-5.47,2.45-7.64,8.12-7.77q7.47-.17,14.94,0c6.21.14,8,2,8.06,8.09C54.26,67,54.22,69.47,54.22,72Z"/></g></g></svg>