<svg xmlns="http://www.w3.org/2000/svg" viewBox="0 0 210.56 565.89"><title>Asset 2</title><g id="Layer_2" data-name="Layer 2"><g id="Layer_1-2" data-name="Layer 1"><path d="M95.59,170.84c0,5.76-.18,10.75,0,15.73.24,5.34,2.5,7.39,7.92,7.41,15,.06,30,.11,45,0,8.73-.07,11.26,2.65,10.58,10.43-.39,4.46,0,9-.1,13.48-.09,5.07-2.13,7.22-7.34,7.4s-10.33,0-15.5.08c-6.68.12-8.33,1.58-8.61,8.15-.22,5.15,0,10.31,0,15.46,0,4.79,2.78,6.91,7.28,7,5.33.09,10.67,0,16,.06,6.11.09,8.13,2.11,8.19,8.06,0,4.83,0,9.66,0,14.49,0,6.58-1.94,8.67-8.64,8.73-13.16.12-26.33,0-39.5,0h-5c-8.84,0-10.33,1.5-10.34,10.6q0,43.25,0,86.49c0,6.17.08,12.33,0,18.5-.1,5.69-2.25,7.89-7.87,8-5.33.13-10.67-.06-16,.07s-7.61,2.32-7.74,7.62c-.12,5-.11,10,0,15,.11,5.49,2.05,7.92,7.39,8q24.24.31,48.49,0c5.15-.06,7.13-2.45,7.24-7.57s-.08-10,.06-15c.17-6,2.3-8.13,8.2-8.22,5.33-.08,10.67-.14,16-.07,5.49.07,7.89,2.56,7.89,8q0,69.24,0,138.48c0,6.12-2.18,8.34-8.48,8.5q-7.49.2-15,0c-6.33-.17-8.57-2.5-8.6-9-.07-14.5,0-29,0-43.5,0-7.52-1.89-9.4-9.42-9.43-4.67,0-9.33.06-14,0-5.75-.09-8.18-2.42-8.37-8.21-.16-5,0-10-.06-15-.1-5.43-2.11-7.56-7.56-7.73s-10.67-.16-16,0c-5.6.17-7.64,2.38-7.74,8.14-.08,4.66,0,9.33,0,14-.11,6.5-2.33,8.73-8.73,8.8-5,.06-10,.09-15,0-6-.12-8.13-2.2-8.24-8.15-.08-4.5,0-9,0-13.5-.06-7.12-2.56-9.44-9.81-9.33q-7,.1-14,0c-5.68-.1-7.91-2.27-8-7.83-.09-5.16-.1-10.33,0-15.5.11-5.37,2.34-7.56,7.62-7.64,5.5-.09,11,.05,16.49-.19s7.46-2.42,7.65-7.82c.17-5,.17-10,0-15-.19-5.57-2.47-7.7-8.17-7.81-5.33-.1-10.67.08-16-.08S.16,408.6.07,403.23c-.08-5-.05-10,0-15,0-6.28,2.07-8.35,8.43-8.37,15-.05,30,0,45,0,8.19,0,10-1.81,10.05-9.93q0-51.25,0-102.49c0-10.08,1.37-11.41,11.62-11.41,4.33,0,8.67.07,13,0,4.59-.12,7.08-2.44,7.05-7.2q0-8.25,0-16.5c0-4.28-2.21-6.62-6.34-6.76-6.16-.2-12.33-.19-18.49,0-4.19.11-6.35,2.63-6.44,6.76-.11,5.16,0,10.33-.09,15.5-.14,6.14-2.06,8.29-8,8.53-5.49.22-11,.22-16.49,0s-7.45-2.39-7.48-7.85q-.11-23,0-46c0-5.83,2.77-8.38,8.69-8.38,5.15,0,10.31-.06,15.46,0,4.71,0,7.22-2.32,7.38-6.9.18-5.15,0-10.31,0-16.27-5.63,0-11,0-16.46,0-5.82,0-7.12-1.26-7.12-7q0-78.24,0-156.48C39.9,1.44,41.59,0,48.48,0q53.5,0,107,0c15.33,0,30.66,0,46,0,7.49,0,9.08,1.62,9.08,9.08q0,76.74,0,153.49c0,7.32-1,8.25-8.44,8.25H95.59Zm29.55-146c-18.15,0-36.31.14-54.46-.1-4.8-.06-6.53,1.52-6.52,6.26q.15,54.46,0,108.93c0,4.58,1.46,6.5,6.35,6.48q54.71-.22,109.43,0c4.47,0,6.19-1.44,6.18-6.05C186,104,186.06,67.72,186,31.41c0-6.21-.41-6.56-6.43-6.57Z"/></g></g></svg>