<svg xmlns="http://www.w3.org/2000/svg" viewBox="0 0 277.17 216.16"><title>Asset 20</title><g id="Layer_2" data-name="Layer 2"><g id="Layer_1-2" data-name="Layer 1"><path d="M163.63,92.18c0,6.16-.33,12,.22,17.71.15,1.52,3,3.92,4.61,4,10.15.37,20.32.23,30.49.17,3.48,0,5.09-2,5.07-5.45,0-3.17-.11-6.34,0-9.5.22-5.06,1.19-5.52,11-5.51,8.3,0,9.34.5,9.42,5.47.15,9.16,0,18.33.06,27.5,0,6.9.88,7.69,7.78,7.71,12.7,0,12.7,0,12.7,12.94q0,31,0,62c0,6.07-.86,7-7,6.87-13.15-.17-14.24,2.7-13.8-13.71.13-4.73-1.61-6.61-6.4-6.5-9.16.22-18.33-.05-27.5.11-4.59.08-6.53-1.76-6.83-6.4-.91-14-.66-14.42,13.17-14.48,6.54,0,7.3-.74,7.33-7.07.07-13.76.88-13-12.49-12.94-7.07,0-8-.9-8-8.13,0-12.81,1-12.46-12.64-12.34-6.48.06-7.34,1-7.35,7.68q0,32.75,0,65.5c0,7.68-.64,8.34-8.12,8.3-12.51-.06-12.69,1.87-12.56-12.31.06-7.19-.61-7.83-7.55-7.84-9,0-18,.12-27-.06-4.35-.09-6.08,1.93-6.1,6,0,3,0,6,0,9,0,3.51-1.65,5.26-5.14,5.26-10.17,0-20.33,0-30.5,0-3.56,0-5.19-1.91-5.32-5.23-.13-3.16-.09-6.33,0-9.5.07-3.7-1.51-5.51-5.38-5.48q-14.75.14-29.5,0c-3.8,0-5.51,1.69-5.47,5.42,0,3.33.08,6.67-.07,10-.14,3.13-1.71,4.89-5.09,4.79s-7-.09-10.5,0S.4,214.31.1,211.25C0,210.09,0,208.92,0,207.75Q0,155,0,102.25c0-7.71,1-8.65,8.6-8.67,12.23,0,12.23,0,12.23,11.93q0,30.5,0,61c0,8.39.2,8.58,8.82,8.58s17-.1,25.5,0c4.2.07,6.1-1.56,6.05-5.88-.18-15.52,1.58-14.32-13.73-14.14-4.57.05-6.61-1.71-6.58-6.53.11-14.52-1.76-14.66,14.3-14.29,4.23.1,6.27-1.54,6-5.86-.09-1.33,0-2.67,0-4,0-10.18-.27-10.44-10.73-10.35-9.4.08-9.75-.4-9.55-9.82.17-8.33,0-16.66,0-25,0-4-1.86-5.74-5.82-5.7q-13.75.11-27.5,0C1.07,73.5.12,72.47,0,66c-.2-15,.18-13,13-13,14,0,28,.1,42-.07,4.76-.06,6.63,1.9,6.56,6.53-.13,9.16-.09,18.33,0,27.5.05,5.6,1.15,6.67,6.84,6.67,22.17,0,44.33.1,66.5-.1,2.49,0,6.49-1,7.14-2.62,1.47-3.64,2.12-7.94-1.52-11.5C130.8,69.83,126.62,58,126.87,44.58c.42-23,19.6-43,42.58-44.48C194.2-1.45,215.34,14.94,219,38.51c5,32-20.48,58.09-52.5,53.82C165.86,92.24,165.19,92.26,163.63,92.18Zm-9.7-46.25c.19,14.22,5.31,26.16,15.69,35.61,1.88,1.71,5,3.22,7.43,3C196.85,82.61,211.64,66,211.86,46c.19-18-15.1-35.3-33.66-37.58a11.57,11.57,0,0,0-8.11,2.49C159.56,20.15,154.27,32,153.94,45.94ZM112,175.09c8.16,0,16.33-.12,24.49,0,4.44.09,6.4-1.69,6.37-6.18q-.13-24.24,0-48.49c0-4.43-1.89-6.28-6.34-6.26-15.83.06-31.65-.09-47.48-.1-5.5,0-7.18,1.65-7.18,7.18,0,16,.15,32,.1,48,0,4.32,1.84,5.94,6,5.86C96,175,104,175.09,112,175.09Z"/><path d="M277.16,118.16c0,15.43,0,15.45-15.43,15.42-3,0-6-.26-9-.31-4.6-.08-6.6-2.72-6.7-7-.13-5.65-.1-11.3,0-16.95.07-4.39,2.54-6.85,6.82-7,5.81-.22,11.63-.18,17.45,0,4.31.11,6.77,2.41,6.83,6.88C277.19,112.18,277.16,115.17,277.16,118.16Z"/><path d="M110.89,159.09c-15.56,0-15.7-.14-15.7-15.8,0-15,.4-15.37,15.23-15.36,2.82,0,5.65,0,8.47.15,5.72.26,7.49,2,7.61,7.51q.17,8,0,15.95c-.11,5.45-2.17,7.42-7.64,7.54C116.21,159.14,113.55,159.09,110.89,159.09Z"/></g></g></svg>