<svg xmlns="http://www.w3.org/2000/svg" viewBox="0 0 439.79 195.82"><title>uuiu</title><g id="Layer_2" data-name="Layer 2"><g id="Layer_1-2" data-name="Layer 1"><path d="M294.51,62c-12.49,0-25,0-37.48,0-6.65,0-8.71-1.95-9-8.48-.17-4.81-.18-9.64,0-14.46.24-6.55,2.09-8.29,9-8.35,12.83-.11,25.66,0,38.48,0,2.17,0,4.33.06,6.5,0,5.56-.2,7.52-2.12,7.6-7.59.08-5-.07-10,0-15,.14-6,2.31-8,8.26-8q7.5-.06,15,0c6.16.06,7.91,1.8,8,8.13.09,4.5,0,9,0,13.49.12,7.13,1.89,8.9,8.91,9,4.83.08,9.66,0,14.49.11S372,33.27,372,38.15q.07,23.74,0,47.48c0,4.56-2.38,7.14-7.11,7.17-5.66,0-11.32.13-17,0-5-.09-7.08-3.11-7.14-7.78s0-9.33,0-14c0-7.37-1.68-9-9.22-9C319.17,62,306.84,62,294.51,62Z"/><path d="M162.85,79.36c9.33,0,18.67,0,28,0,6.31,0,7.83,1.38,7.85,7.49q.08,28.5,0,57c0,6.09-1.34,7.32-7.4,7.33q-28.25,0-56.5,0c-6.29,0-8-1.68-8-8q-.07-28,0-56c0-6.27,1.68-7.83,8.12-7.84C144.19,79.34,153.52,79.36,162.85,79.36Z"/><path d="M251.56,133.17q0-26.24,0-52.47c0-6.77,1.84-8.62,8.5-8.67q7-.05,14,0c6.92.05,8.63,1.59,8.66,8.47.09,17.32,0,34.64,0,52,0,17.82-.13,35.65-.08,53.47,0,8-1,9.41-8.91,9.76-4.81.21-9.64.14-14.46,0-5.78-.19-7.67-2.18-7.69-8C251.53,169.49,251.56,151.33,251.56,133.17Z"/><path d="M395.1,158.19c-12.82,0-25.65-.14-38.47.08-4.53.08-6.22-1.45-6.15-6.05q.3-20.73,0-41.47c-.07-4.63,1.72-6.12,6.17-6.13,11.91,0,11.91-.16,11.91,11.9,0,5.83.17,11.66-.06,17.49-.17,4.42,1.34,6.41,6,6.26,7.82-.25,15.66-.19,23.48,0,4,.09,5.62-1.24,5.82-5.42.55-12,.71-12.15,12.48-12.4,4.21-.09,5.47-2,5.41-5.88-.17-12.11-.1-12,11.91-11.93,4.5,0,6.23,1.59,6.17,6.15q-.27,20.73,0,41.47c.06,4.61-1.71,6.11-6.21,6C420.76,158.05,407.93,158.19,395.1,158.19Z"/><path d="M31.13,71.36c7.66,0,15.31-.07,23,0,5.81.07,7.86,2,7.92,7.83q.25,23.21.24,46.43c0,5-2.69,7.6-7.77,7.69-5.32.09-10.65.1-16,0s-7.22-2.08-7.41-7.3.08-10.33-.18-15.47c-.31-6.21-1.76-7.58-7.87-7.83-5.3-.22-10.61-.26-15.92-.34-4.46-.07-6.86-2.37-7-6.74C0,89.82-.09,84,.16,78.17c.21-4.83,2.58-6.72,8-6.79C15.82,71.29,23.48,71.36,31.13,71.36Z"/><path d="M294.39,103c0-7.66-.07-15.32,0-23,.08-5.79,2.06-7.78,7.86-7.92q7.74-.19,15.48,0c5.51.15,7.7,2.16,7.74,7.57q.19,23.47,0,46.94c0,4.86-2.61,7.39-7.45,7.56-5.32.18-10.66.18-16,0-5.59-.19-7.61-2.4-7.67-8.19C294.33,118.28,294.39,110.62,294.39,103Z"/><path d="M112.6,121.19c0,11.49-.12,23,.06,34.48.07,4.65-1.56,6.89-6.39,6.55a60.75,60.75,0,0,0-8.49,0c-4.86.35-6.45-2-6.43-6.58q.13-35,0-70c0-4.62,1.67-6.87,6.48-6.53a58.43,58.43,0,0,0,8.48,0c4.89-.37,6.47,2.05,6.43,6.58-.11,11.82,0,23.64,0,35.46Z"/></g></g></svg>