<svg xmlns="http://www.w3.org/2000/svg" viewBox="0 0 229.86 174.96"><title>dsad</title><g id="Layer_2" data-name="Layer 2"><g id="Layer_1-2" data-name="Layer 1"><path d="M160.63,90.24c0,5-.4,9.55.23,13.91.21,1.44,3,3.44,4.72,3.6,11.15,1,11.29.87,11.59,11.74.1,3.71,1.74,4.9,5.16,5.1,11.58.69,11.57.75,11.57,12.65,0,5,.15,10,0,15-.16,4.08,1.54,5.77,5.59,5.7,7.16-.12,14.34.13,21.5-.09,4.44-.14,6.28,1.32,6.22,6-.14,11,.05,11-10.81,11s-22-.12-33,.05c-4.69.07-6.48-1.73-6.51-6.47-.07-10.42-.26-10.42-10.68-10.42-5.67,0-11.34-.16-17,.05-4.17.16-5.82-1.68-5.61-5.64,0-.66,0-1.33,0-2,0-9.4,0-9.25,9.4-9.52,2.35-.07,6.51-1.2,6.66-2.28.58-4.13,1.44-10.26-.8-12.21-2.64-2.3-8.41-1.42-12.74-1-.92.09-2,4.1-2.09,6.33-.28,9.43-.15,9.44-9.72,9.44-6.33,0-12.67-.11-19,0-3.67.09-5.24-1.5-5-5.07,0-.5,0-1,0-1.5-.08-10-.08-10,10-10.15,5.88-.1,6.71-.89,6.79-6.59,0-1.83.54-3.93-.17-5.43-.83-1.76-2.74-3-4.22-4.44-.18-.17-.65,0-1,0-13,.45-11.4,0-11.44-12.27-.05-16,.15-32-.11-48-.08-5.07,1.77-7.13,6.69-6.7.82.07,1.66,0,2.5,0,7.48.09,7.89.49,7.9,7.95,0,12,.13,24-.06,36-.07,4.51,1.49,6.62,6.1,6.06a12.35,12.35,0,0,1,1.5,0c8.75,0,8.75,0,8.79-8.78,0-7.62.7-8.23,8.31-8.23,23.67,0,47.33-.06,71,.11,2.34,0,6.47,1.24,6.67,2.41a31.52,31.52,0,0,1-.62,12.13c-.22,1-4.13,1.43-6.35,1.45-18.66.12-37.33.07-56,.08Z"/><path d="M67.56,158.07c-8.16,0-16.32,0-24.48,0-7,0-9.72-2.49-9.8-9.58-.1-8.82.22-17.64.25-26.46q0-11.23-.18-22.45c-.12-5.7-2.62-8.19-8.33-8.3s-11.33.07-17-.07-7.84-2.4-8-8C0,77.38,0,71.55.1,65.72c.13-5.56,2.33-8,8-8.06q25.48-.25,51,0c5.77.06,7.94,2.65,8,8.53.07,5.5-.08,11,0,16.49.14,5.72,2.61,8.22,8.3,8.36s11.33,0,17,.06c5.37.11,8,2.18,8,7.45q.31,26.22,0,52.45c-.06,5-2.67,7-7.82,7C84.22,158.13,75.89,158.07,67.56,158.07Z"/><path d="M160.89,33.58c0-9.66.12-19.32-.06-29-.06-3.43.95-4.63,4.51-4.61q29.22.23,58.45,0c3.22,0,4.35.92,4.33,4.24q-.19,29.47,0,58.95c0,3-.88,4.1-4,4.09q-29.72-.15-59.45,0c-3.25,0-3.87-1.42-3.84-4.24C161,53.23,160.89,43.4,160.89,33.58Zm57.05-23.37H171.38c-.31.58-.59.86-.59,1.15-.08,14.32-.11,28.63-.23,42.95,0,3.23,2,3.27,4.32,3.27,9.16,0,18.32,0,27.48,0h15.58Z"/><path d="M32.22,32.07c0,15.51,0,15.51-15.29,15.51-2.82,0-5.65.12-8.47-.06-5.09-.31-7.24-2.46-7.37-7.47C1,34.74,1,29.42,1.09,24.11,1.2,19,3.26,16.59,8.22,16.35a169.17,169.17,0,0,1,16.93,0c5,.26,6.89,2.52,7.06,7.75C32.29,26.75,32.22,29.41,32.22,32.07Z"/><path d="M179.06,34.06q0-.5,0-1c0-14.54.29-14.84,15.14-14.81,2.82,0,5.65,0,8.46.27,5.8.52,7.36,2.06,7.5,7.7.14,5.48.06,11,0,16.44-.07,4.42-2.48,6.76-6.84,6.85-5.48.12-11,.16-16.44,0-5.7-.14-7.68-2.28-7.77-8C179,39,179.06,36.55,179.06,34.06Z"/></g></g></svg>