<svg xmlns="http://www.w3.org/2000/svg" viewBox="0 0 442.05 213.15"><title>sdasdsad</title><g id="Layer_2" data-name="Layer 2"><g id="Layer_1-2" data-name="Layer 1"><path d="M384.71,117.06c-7.72,0-14.87.13-22,0-6.62-.15-8.5-2.15-8.64-8.86-.09-4.5-.1-9,.07-13.49s2.53-7.05,7.26-7.05c5,0,10,0,15-.11,4.61-.12,7-2.47,7-7.23-.06-5,0-10,0-15,0-4.23-2.2-6.53-6.45-6.6-5.16-.09-10.33-.07-15.5,0-4.45,0-6.79,2.39-6.9,6.8-.12,5-.17,10-.09,15,.08,4.77-2.36,7.09-6.88,7.41-2.65.18-5.33.08-8,.08H247c-7.82,0-9.31,1.49-9.33,9.33,0,13.33,0,26.66,0,40,0,7.17-1.68,8.81-8.81,8.84-4.33,0-8.67-.14-13,0-5.06.21-7.48-2.31-7.68-7.07-.22-5-.09-10-.2-15s-1.86-6.85-7-7q-7.24-.15-14.49,0c-5.28.12-7,1.94-7.17,7.37-.11,4.66.08,9.33-.07,14-.18,5.56-2.18,7.5-7.64,7.59-4.83.08-9.67.09-14.5,0-5.13-.09-7.18-2.16-7.3-7.36-.1-4.16,0-8.33,0-12.5,0-7.35-1.88-9.2-9.06-9.14-4.33,0-8.67,0-13-.09-4.57-.14-7.09-2.47-7.08-7.2,0-5.17,0-10.33,0-15.5.06-4.21,2.27-6.52,6.49-6.62,4.83-.12,9.67,0,14.5-.11,6.19-.17,8.05-2.09,8.12-8.17.05-4.67.06-9.33,0-14-.07-4.18-2.24-6.56-6.46-6.68-4.83-.14-9.66,0-14.49-.13-6.17-.14-8.07-2-8.17-8.1-.07-4.16,0-8.33,0-12.5-.05-6.59-2-8.66-8.68-8.7-13.5-.07-27,0-40.49,0-7.53,0-8.82-1.1-9.15-8.47-.21-4.81-.08-9.64,0-14.46.1-4,2.33-6.11,6.3-6.24,2.66-.09,5.33,0,8,0l124-.11c5.31,0,7.9,2.29,8,7.41s-.14,10.32-.28,15.48c-.12,4.26-2.33,6.39-6.62,6.38-4.83,0-9.67-.13-14.5.05-5.86.22-7.78,2.16-7.82,8q-.13,21.25,0,42.49c0,5.62,1.89,7.49,7.51,7.72,4.66.19,9.34.2,14,0,5.33-.24,7-2.16,7.11-7.49.06-4,0-8,0-12,.09-7.8,2-9.75,9.81-9.75h97c8.86,0,10.15-1.23,10.17-10q.06-19.74,0-39.49C325,2,326.68.16,333.45.11c4.5,0,9-.05,13.49,0,5.68.07,7.31,1.73,7.42,7.56.07,4.16,0,8.33,0,12.5.11,7.16,1.85,8.89,8.85,8.92,4.33,0,8.67.08,13,0,5-.12,6.92-1.94,7.08-7,.15-4.83-.06-9.67.08-14.5C383.57,2,385.47.19,391.06.12q7-.09,14,0c6,.08,7.76,1.82,7.8,7.74.1,13.66.14,27.33.18,41,0,8.2,1.24,9.41,9.64,9.43,4,0,8-.1,12,0,5,.16,7.27,2.53,7.34,7.48.06,4.49,0,9,0,13.49,0,6.54-2,8.51-8.75,8.65-4.33.09-8.67-.06-13,0-5.41.13-7.19,1.9-7.22,7.27-.06,11.83,0,23.66,0,35.49,0,5.8-1.61,7.32-7.45,7.37q-6.74.06-13.49,0c-5.73-.05-7.31-1.66-7.36-7.5C384.68,126.3,384.71,122,384.71,117.06Z"/><path d="M249,154.38q0-25,0-50c0-6.73,1.42-8.07,8.28-8.11,16.9-.09,15.4-1.05,15.38,15.33,0,7.33-.06,14.67,0,22,.09,8.59,1,9.47,9.44,9.5h8.5c3.47,0,5.25,1.81,5.31,5.23.07,4.17.06,8.33,0,12.5,0,3.68-2,5.54-5.57,5.68-3.83.15-7.66.1-11.5.09-4.06,0-6,1.86-6.25,6-1.13,16.77-.39,17.6,16.42,16.95,5.25-.2,6.72-1.74,6.74-7.08q0-5.25,0-10.49c0-3.69,2-5.58,5.52-5.7,4.16-.14,8.33-.1,12.5,0,3.65.09,5.44,2.14,5.45,5.75q0,17.5,0,35c0,4.8-2.83,6.11-7.21,6.09-18.5-.11-37,0-55.5-.05-6.12,0-7.57-1.41-7.59-7.72C249,188.38,249,171.38,249,154.38Z"/><path d="M96.92,102.49c0,17.16-.05,34.32,0,51.47,0,7.88-1,9.27-9,9.64-4.64.22-9.31.14-14,0-6.37-.22-8.06-2.08-8.08-8.64,0-12.16,0-24.32,0-36.48q0-34.73,0-69.47c0-7.37,1.64-9,9.12-9.05q6.73-.06,13.46,0C95.24,40,97,41.6,97,48.54c.08,18,0,36,0,54Z"/><path d="M54.37,87.61c0,12.66-.11,25.33.06,38,.06,4.51-1.18,6.68-6.23,6.6C35.34,132,36,133.26,36,120c0-6-.14-12,.05-18,.14-4.36-1.86-6.11-6-5.92-.33,0-.67,0-1,0-11-.16-13.46-3.28-10.83-14.21.36-1.5,2.46-2.64,3.89-3.77.41-.32,1.29-.05,2,0C37.88,78.36,36,78.45,36,64.21a2.57,2.57,0,0,0-.27-1.45c-3.57-4.7-8.62-1.89-13-2.37-3-.34-4.31,2-4.35,4.89a15.9,15.9,0,0,1,0,2c-.48,3.35-.13,9-1.69,9.6-4.09,1.56-9,1.21-13.61.92C2,77.72.24,74.92.19,73.34-.09,64.52,0,55.68.1,46.85c0-3.13,1.72-4.79,5.09-4.78,14.66.07,29.33.12,44,0,4.49,0,5.22,2.44,5.21,6.06C54.34,61.28,54.37,74.45,54.37,87.61Z"/><path d="M186.86,184.31q0,6.49,0,13c0,1,.26,2.14-.13,3-3.2,6.81-9.34,2.74-14.12,3.58-3.22.57-5.48-1.13-5.56-4.76-.05-2.49,0-5,0-7.49-.07-6.56-.89-7.37-7.56-7.46-2.49,0-5.07.39-7.46-.09-8.2-1.63-3.61-8.27-4.51-12.66-.69-3.33-.19-7,4.66-7.07,10-.08,20-.05,30,0,3.24,0,4.82,1.71,4.78,5C186.81,174.32,186.86,179.31,186.86,184.31Z"/><path d="M101.39,188c0-3.16-.09-6.33,0-9.49.17-4.53,2.56-7.22,7.13-7.33,6.32-.17,12.66-.19,19,0,4.3.15,6.74,2.69,6.81,7.07q.15,9.47,0,18.95c-.07,4.69-2.73,6.95-7.3,7-5.83.06-11.66.09-17.48,0s-8-2.21-8.16-8.23c-.08-2.66,0-5.33,0-8Z"/><path d="M350,138.33c0,11.41-.37,11.78-11.64,11.5-1.66,0-3.31-.2-5-.23-3.59-.07-5.6-1.68-5.57-5.45s.05-7.63,0-11.44c-.05-3.56,2-5.11,5.19-5.39,2-.17,4-.05,6-.05C350,127.27,350,127.28,350,138.33Z"/></g></g></svg>