<svg xmlns="http://www.w3.org/2000/svg" viewBox="0 0 162.53 237.84"><title>dsd</title><g id="Layer_2" data-name="Layer 2"><g id="Layer_1-2" data-name="Layer 1"><path d="M1.36,156.75q0-36.24,0-72.47c0-6.85,1.23-8.1,8.2-8.1q72.23,0,144.45,0c7.06,0,8.52,1.51,8.52,8.43q0,72.47,0,144.95c0,6.91-1.24,8.25-8,8.26q-72.72,0-145.45,0c-6.33,0-7.68-1.38-7.69-7.59Q1.34,193.49,1.36,156.75Zm23.17.22c0,17,.13,34-.09,51-.06,4.64,1.29,6.63,6.14,6.61q51.47-.16,102.93,0c4.09,0,5.94-1.27,5.92-5.77q-.21-51.72,0-103.43c0-4-1.26-5.84-5.38-5.83q-52,.08-103.93,0c-4.26,0-5.72,1.67-5.66,6C24.66,122.66,24.53,139.82,24.53,157Z"/><path d="M0,32.24c0-8.33-.09-16.66,0-25C.15,1,1.29,0,7.42,0q47,0,93.95,0c6.35,0,7.14.82,7.16,7.23q0,3.75,0,7.5c0,6-1,7.06-6.89,7.09-9.49,0-19,0-28.48,0-6.95,0-7.75.86-7.79,7.79a3.39,3.39,0,0,1,0,.5c-.65,4.13-.17,11-2.18,11.85-4.73,1.94-10.67,1.33-16.07,1-1.34-.09-3.07-3.11-3.52-5-.59-2.52-.07-5.29-.08-8a11.48,11.48,0,0,0-.21-3.48C40.54,18,33.48,23,28.41,22c-3.6-.77-6.13,1.06-6.33,5.14,0,.33,0,.67,0,1-.08,16.42-1,15.15,14,15.1,6.46,0,7.51,1,7.58,7.53C43.85,67.26,44,64.9,29.95,65c-7.66.05-15.33,0-23,0C1.57,65,.13,63.65.06,58.22,0,49.56,0,40.9,0,32.24Z"/><path d="M116.53,157.13c0,9.16,0,18.31,0,27.47,0,5.4-1.41,7.15-6.56,7.18-18.64.11-37.29.08-55.93,0-4.35,0-6.72-2.07-6.7-6.77q.12-28.21,0-56.43c0-4.53,2.32-6.39,6.44-6.4q28.21-.07,56.43,0c4.47,0,6.49,2.29,6.39,7C116.38,138.49,116.53,147.81,116.53,157.13Z"/></g></g></svg>