<svg xmlns="http://www.w3.org/2000/svg" viewBox="0 0 325.9 413.04"><title>dasda</title><g id="Layer_2" data-name="Layer 2"><g id="Layer_1-2" data-name="Layer 1"><path d="M278.85,165.53c0,12.49,0,25,0,37.46,0,7.24-2,9.18-9.14,9.21q-36,.17-71.9.33c-10.38,0-12.28-1.86-12.28-12.14q0-35.19,0-70.38c0-9.09,1.76-10.8,10.77-10.8H268.2c9,0,10.64,1.66,10.65,10.87Q278.85,147.8,278.85,165.53Z"/><path d="M0,274.35c0-7.49,0-15,0-22.48,0-6,2.06-8.12,8.07-8.3,4.82-.15,9.66,0,14.49-.06,6.19-.14,8.08-2,8.25-8.07.14-5.15.06-10.32.11-15.47,0-4.66,2.52-7.23,7.08-7.26,16-.12,32-.21,47.95,0,5.23.07,7,2.53,7,8.24q.06,22.48,0,45c0,6.5-2.46,8.92-9.17,9-14.49.07-29,0-43.46,0-7.26,0-9.17,1.85-9.33,9.08-.1,4.66,0,9.32,0,14-.07,5.4-1.79,7.38-7,7.55-5.64.19-11.3.07-17,0-4.73,0-7-2.57-7-7.2C0,290.33,0,282.34,0,274.35Z"/><path d="M137,245c0-21.56,0-42.37,0-63.17q0-25.23,0-50.47c0-9.67,3.12-13.28,11.84-12.25a84,84,0,0,0,9,.06c7.6.08,10.05,2.43,10.15,10.2.15,12.82.18,25.64.19,38.46q0,47.22,0,94.43a34,34,0,0,1-.46,6.46c-1.08,5.52-3.26,7.23-8.93,7.27-12.16.08-24.32.16-36.47.14a43.45,43.45,0,0,1-8.43-.69c-4.62-.92-7.29-3.53-6.91-8.73a100.12,100.12,0,0,0,0-12.47c-.26-4.92,2.12-7.81,6.68-8.3,6.26-.67,12.59-.67,18.89-.93C133.84,245,135.14,245,137,245Z"/><path d="M247.18,354.26q0-25,0-50c0-6.56,1.45-8,7.82-8.06,3.17,0,6.33,0,9.5,0,4.35-.06,6.39,2,6.36,6.38-.08,10.5-.1,21,0,31.5.09,8,1.14,8.91,9,9,2.83,0,5.67.06,8.5,0,4-.09,5.81,1.92,5.81,5.79s0,7.67,0,11.5c.06,4.19-2.13,6.11-6.13,6.18-3.83.07-7.67,0-11.5.08-3.57.07-5.56,1.81-5.62,5.54-.31,19.39-1.38,17.4,17.38,17.35,3.86,0,5.71-2.26,5.7-6.08s0-7.66,0-11.49,2-5.43,5.56-5.69h.5c19.2.07,17.42-2,17.43,16.33q0,11,0,22c0,7.37-1.11,8.49-8.27,8.49h-53.5c-7.4,0-8.55-1.15-8.56-8.77Q247.16,379.26,247.18,354.26Z"/><path d="M247.85,250.76c0-7.33,0-14.66,0-22,0-7,1.84-8.71,9-8.74,4.66,0,9.32,0,14,0,6,.06,7.94,2,8,8.16.08,4.83-.07,9.66.09,14.48.21,6,2.25,8,8.24,8.16,5,.1,10-.06,15,.06,5.14.12,7.55,2.12,7.61,7.22.19,16,.14,32,0,48,0,4.36-2.75,6.74-7,6.88-5.66.19-11.33.16-17,0-4.26-.13-6.86-2.3-7-6.82-.12-5.49-.18-11-.35-16.47s-2.11-7.46-7.64-7.61c-4.66-.13-9.33,0-14,0-7.06,0-9-1.87-9-8.79C247.81,265.75,247.85,258.25,247.85,250.76Z"/><path d="M208,266.38c0-12.5,0-25,0-37.49,0-6.62,2-8.63,8.63-8.68,5,0,10-.09,15,0,5.28.11,7.32,1.95,7.34,7.26.1,22.49,0,45,0,67.47,0,3.66.08,7.33.06,11,0,4.64-2.35,7.16-7,7.22-5.5.07-11,.13-16.5,0s-7.48-2.35-7.51-7.78C208,292.37,208,279.37,208,266.38Z"/><path d="M275.18,48.84c0,5.83-.06,11.65,0,17.48.07,4.54-1.89,6.84-6.56,6.74-4-.09-8,0-12,0s-5.86-1.84-5.82-5.81.05-7.66,0-11.49c-.09-4.56-2.06-7.17-7.05-6.9-3.49.19-7,0-10.48,0-4.48.09-7-2-7-6.5-.09-12.15-.14-24.3,0-36.45C226.33,2,228.54-.13,232.72,0s8.32.09,12.48,0c3.77-.07,5.55,2,5.7,5.46.18,4.15.14,8.32.09,12.48s1.91,6.2,6,6.22c3.83,0,7.66.1,11.48,0,4.67-.13,6.68,2.2,6.67,6.68C275.16,36.86,275.17,42.85,275.18,48.84Z"/><path d="M216.52,73.11c0,7.16,0,14.32,0,21.48,0,7.64-1.92,9.55-9.36,9.6-4.66,0-9.33.1-14,0-5.42-.14-7.84-2.19-7.9-7.52q-.27-23.48,0-47c.06-5.28,2.46-7.41,7.88-7.59,5.16-.17,10.33-.17,15.48,0,5.67.17,7.74,2.26,7.85,8C216.62,57.79,216.51,65.45,216.52,73.11Z"/><path d="M168.51,72.93c0,7.66.09,15.32,0,23-.09,6-2.31,8.17-8.16,8.26-5.16.09-10.33.13-15.49,0s-7.51-2.23-7.57-7.33c-.19-15.82-.14-31.64,0-47.46,0-4.82,2.92-7.24,7.7-7.29,5.33-.06,10.66-.17,16,0s7.41,2.31,7.52,7.85C168.63,57.61,168.51,65.27,168.51,72.93Z"/><path d="M93,150.87c7.65,0,15.29,0,22.94,0,6,0,8,2.06,8.07,8.13.07,5,.09,10,0,15-.1,5.37-2.21,7.88-7.44,7.94q-23.43.27-46.87,0c-5.59-.06-7.67-2.43-7.79-8.09-.11-5.32,0-10.64,0-16,0-4.73,2.5-7,7.13-7C77,150.86,85,150.87,93,150.87Z"/><path d="M310,171c-15.53.17-15.53.17-15.53-15.19,0-2.82-.09-5.65,0-8.47.22-5.17,2.26-7.22,7.37-7.31,5.48-.1,11,0,16.44,0,4.77-.07,7.13,2.52,7.34,7,.25,5.47.3,11,0,16.44-.29,5.73-2.4,7.48-8.21,7.62C315,171.08,312.52,171,310,171Z"/><path d="M185,16.13C185,1.2,185,1.2,200,1.2c16.2,0,16.2,0,16.2,16,0,15.23-.06,15.31-15.11,15.28-2.82,0-5.64-.13-8.45-.33-5.84-.4-7.48-2.16-7.6-8.09C185,21.45,185,18.79,185,16.13Z"/><path d="M67.44,292.44c2.32.14,4.64.32,7,.41,7.31.3,8.56,1.5,8.68,8.92.08,5.15,0,10.3-.09,15.45-.09,4.23-2.51,6.46-6.58,6.59-5.81.18-11.64.16-17.46,0-4.29-.11-6.86-2.35-6.91-6.83-.07-5.82-.09-11.64,0-17.45.07-4.11,2.14-6.55,6.43-6.65,3-.07,6,0,9,0Z"/></g></g></svg>