<svg xmlns="http://www.w3.org/2000/svg" viewBox="0 0 250.11 219.94"><title>dfsdf</title><g id="Layer_2" data-name="Layer 2"><g id="Layer_1-2" data-name="Layer 1"><path d="M168.69,62c0,7.5.11,15,0,22.49-.12,6.22-1.82,8-8,8.35-5.31.26-10.65.09-16,0-4.94-.1-7.18-3-7.26-7.68s0-9.66,0-14.49c-.05-6.79-1.81-8.62-8.6-8.63Q92,62,55.29,62c-8.71,0-10.16-1.25-10.61-9.88-.23-4.47-.13-9,0-13.46.23-5.84,2-7.75,7.92-7.93,7.16-.22,14.33-.07,21.49-.07h22c8.89,0,10.23-1.32,10.24-10,0-4.16-.08-8.33,0-12.49.15-6,2.27-8.12,8.14-8.17C119.69,0,124.86,0,130,0c5.58.07,7.47,1.86,7.64,7.5.15,5-.07,10,.08,15,.19,6.12,2.1,8,8.27,8.12,4.66.12,9.33-.08,14,.07,6.7.23,8.58,2.14,8.67,8.8C168.77,47,168.7,54.53,168.69,62Z"/><path d="M129.24,163.25c0,15-.13,30,.08,45,.07,4.84-1.9,6.54-6.51,6.51q-24.49-.16-49,0c-4.56,0-6.7-1.7-6.67-6.49.11-15.88-1-14.2,13.75-14.22,7,0,14,0,21,0,4.48,0,6.67-1.77,6.54-6.61-.24-9.49-.18-19,0-28.49.07-4.28-1.68-6.16-5.95-5.93-2.49.14-5,.06-7.5,0-5.79-.1-7.1-1.45-7-7.09,0-2.66.13-5.33,0-8-.12-3.81-2.09-5.79-6-5.73-3.16,0-6.33-.06-9.49,0-3.58.06-5.13-1.85-5.29-5.21,0-.33,0-.67,0-1-.52-14.63-.52-14.63,14-14.63,13.66,0,27.33,0,41,0,5.95,0,7.16,1.23,7.15,6.9q0,22.49,0,45Z"/><path d="M0,158q0-26.23,0-52.47c0-8,1.36-9.4,9.16-9.47,5,0,10,.06,15,0,4.59-.07,6.67,2.37,7,6.67.1,1.33,0,2.66,0,4q0,51,0,101.94c0,9.73-.75,10.67-10.22,11.2-4.31.24-8.65,0-13-.15-6.26-.27-8-2-8-8.24C0,193.62,0,175.8,0,158Z"/><path d="M208.5,64c7.67,0,15.33-.07,23,0,5.46.06,7.53,2.11,7.66,7.57q.18,7.75,0,15.5C239,92.56,237,95,231.67,95q-23.49.3-47,.06c-5.34-.05-7.51-2.5-7.61-7.79-.1-5.5-.06-11,0-16.5.07-4.46,2.48-6.73,6.91-6.76C192.17,64,200.34,64,208.5,64Z"/><path d="M31.19,34.35c0,7.49.07,15,0,22.47-.07,5.72-2.55,8.23-8.2,8.35-5,.11-10,.13-15,0C2.27,65,.09,62.84.06,57.21Q-.06,34,.07,10.76c0-5.49,2.09-7.52,7.57-7.68q8-.22,16,0c5.4.16,7.43,2.22,7.53,7.78C31.29,18.7,31.19,26.52,31.19,34.35Z"/><path d="M41.37,158.82c0-6.15-.07-12.29,0-18.44.08-5.5,1.74-7.19,7.11-7.33,4.32-.1,8.64,0,13,0,3.82,0,6.09,1.83,6.12,5.64.1,13.62.15,27.24,0,40.86,0,3.69-2.42,5.67-6.22,5.67-4.32,0-8.64,0-13,0-5.09-.1-6.9-1.82-7-6.92C41.28,171.78,41.37,165.3,41.37,158.82Z"/><path d="M186.39,135c15.31,0,15.32,0,15.31,15.43,0,3.16.12,6.32-.07,9.47-.23,3.91-2.47,6.13-6.39,6.22-6,.13-12,.15-17.94,0-4.1-.11-6.48-2.41-6.57-6.59-.11-5.63-.19-11.28,0-16.91s2.05-7.18,7.69-7.46c.83,0,1.66-.12,2.49-.13C182.73,135,184.56,135,186.39,135Z"/><path d="M234.23,166.64c-1.16-.09-2.32-.22-3.48-.27-11.74-.43-12.06-.77-12.06-12.73,0-3.82-.1-7.65.08-11.47.2-4.32,2.53-6.75,7-6.79,5.65-.05,11.3,0,16.95,0,4.76,0,7.1,2.62,7.27,7.06.22,5.64.2,11.31,0,17-.16,4.45-2.45,7.11-7.25,7-2.82-.06-5.64,0-8.46,0Z"/><path d="M155.68,135.2c-16,.17-16,.17-16-15.73,0-15.34,0-15.35,15.42-15.36,2.32,0,4.65.07,7,.09,6.63.05,8.71,1.94,8.91,8.47.14,4.65.16,9.31,0,14-.24,6.6-2.19,8.4-8.83,8.58C160,135.25,157.84,135.2,155.68,135.2Z"/><path d="M207.7,18.82c0,15.37,0,15.37-15.33,15.37h-2c-13.22,0-13.88-.64-14-14.1,0-2.82.15-5.64.3-8.45.36-6.91,2-8.52,8.69-8.61,4.81-.07,9.63-.09,14.44,0,5.9.13,7.72,2,7.87,7.8C207.76,13.51,207.7,16.17,207.7,18.82Z"/><path d="M108.71,70.2c5,0,10,0,15,0,3.58,0,5.69,1.34,5.55,5.29-.12,3.48-.1,7,0,10.46s-1.58,5-4.75,5c-10.47.11-20.93.16-31.4.1-3.32,0-5.22-1.71-5.06-5.34a71.25,71.25,0,0,0,0-8.93c-.41-5.08,1.94-6.88,6.78-6.66C99.39,70.36,104.06,70.2,108.71,70.2Z"/></g></g></svg>