<svg xmlns="http://www.w3.org/2000/svg" viewBox="0 0 504.62 186.46"><title>deded</title><g id="Layer_2" data-name="Layer 2"><g id="Layer_1-2" data-name="Layer 1"><path d="M280.33,76.27c-1.36,9.75-.31,11,8.29,11,1.33,0,2.67.08,4,0,4.59-.31,6.88,1.82,6.89,6.4,0,4.17.06,8.33,0,12.5-.08,3.81-2,5.88-6,5.62-.66,0-1.33,0-2,0-12,.05-12,.05-12,12.35,0,11.59,0,11.59,11.63,11.64,7.35,0,8.31,1,8.37,8.36,0,3.33,0,6.67,0,10,0,4.12,2,6,6.21,6,9-.08,18,.11,27-.07,4.47-.09,6.49,1.77,6.44,6.16-.05,4.17,0,8.33,0,12.5,0,3.91-1.93,5.69-5.9,5.68q-44-.08-88,0c-3.52,0-5.31-1.64-5.37-5.08-.08-4.66,0-9.33,0-14,0-3.44,1.59-5.31,5.18-5.19.67,0,1.33,0,2,0,12.47-.07,12.47-.07,12.47-12.3,0-9.5,0-19,0-28.5,0-6.39-1.19-7.44-7.69-7.53C240,111.61,240,111.61,240,123.61c0,12.49,0,12.49-12.3,12.49H169.24c-8,0-8.69.75-8.7,8.94,0,10.17,0,20.33,0,30.5,0,8.08-.46,8.55-8.26,8.83-11.74.41-11.75.4-11.75-11.23,0-13.12-2.9-15.59-15.7-12.63-1.57.36-3.42,3.07-3.68,4.9-.58,4.09-.29,8.31-.27,12.47s-1.35,6.37-6.09,6.49c-13.93.38-13.92.54-13.92-13.55,0-8.83,0-17.66,0-26.5,0-7.16-1-8.2-7.94-8.22-11.89,0-11.89,0-11.89-12.23,0-12.37,0-12.37,12.21-12.44,6.47,0,7.54-1.07,7.62-7.49,0-3.5,0-7,0-10.5,0-4.05,1.74-6.22,6-6.19,9.17.06,18.33.08,27.5,0,4.13,0,6.3,1.88,6.44,5.9.14,4.33.14,8.67,0,13-.13,3.72-2,5.93-6,5.64-.5,0-1,0-1.5,0-12.42.11-12.42.11-12.41,12.81,0,11.24,0,11.24,11.42,11.18,7.31,0,8.18-.93,8.24-8.46,0-2.83,0-5.67,0-8.5.08-6.1,1.26-7.34,7.34-7.35,16.83,0,33.66,0,50.49,0,5,0,10-.2,15,.06s6.56-2,6.53-6.56c-.08-11.16,0-22.33,0-33.5,0-7.48.5-8,7.82-8.2C239.94,62.82,240,62.9,240,75c0,12.73,0,12.73,12.66,12.26,5.8-.21,6.8-1.18,6.81-7.2q0-8.24-.33-16.48c-.17-4.31,1.44-6.72,6-6.44.33,0,.66,0,1,0,12.52-.41,14-2.12,11.8-14.77-.25-1.46-2.19-3.23-3.71-3.71-2.14-.68-4.61-.31-6.94-.35-1.16,0-2.34.15-3.49.05-5.15-.42-5-4.35-4.56-7.78.57-4-3-10.07,4.49-11.22,2.93-.45,6-.08,9-.1,3.6,0,5.71-1.57,5.42-5.47,0-.17,0-.33,0-.5C278.05-.79,277.06.16,292.06.21c4.27,0,5.52,2.09,5.49,5.88q-.09,12.5,0,25c0,6.18,1.11,7,7.41,7.06,12.57.11,11.2,0,11.24-11.57,0-6.63.71-7.29,7.55-7.3,14,0,28,0,42,0,6.79,0,7.44-.71,7.46-7.44.05-12.11.05-12.11,12.31-11.7,6.42.21,7,.79,7,7.34,0,8.17-.12,16.33,0,24.5.1,4.72-1.94,6.58-6.59,6.52-14.33-.17-28.66-.18-43-.19-6.6,0-7.43.88-7.45,7.6,0,8-.1,16,0,24,.07,4.56-1.57,6.71-6.49,6.49C317,75.82,315.77,79,316.26,63.74c.16-4.89-2-6.69-6.5-6.45-.33,0-.67,0-1,0-11.06-.23-11.19-.1-11.23,10.82,0,7.87-.26,8.12-8.08,8.18C286.48,76.29,283.52,76.27,280.33,76.27Z"/><path d="M467.53,76.23c0,7.66.05,15.33,0,23-.06,6.09-2,8-8.16,8-5,0-10,.06-15,0-5.49-.07-7.53-1.81-7.94-7.39-.34-4.64-.19-9.32-.22-14,0-7.92-1.63-9.58-9.72-9.6q-36.24-.05-72.48,0c-1.17,0-2.33,0-3.5,0-4.38-.15-6.85-2.39-6.94-6.81-.12-5.32-.18-10.65,0-16,.2-6.42,2-8.29,8.5-8.34,14.49-.11,29,0,43.48-.05,7.91,0,9.32-1.21,9.76-9,.28-4.82.1-9.66.25-14.48.16-5.18,2.24-7.22,7.38-7.29,5.49-.07,11-.08,16.49,0,4.9.08,6.92,2.06,7.09,7,.17,5.32-.05,10.67.28,16,.38,6.13,2.28,7.7,8.53,7.82,4.83.09,9.66.05,14.49.19,5.8.17,7.66,2.08,7.71,8C467.58,60.9,467.53,68.57,467.53,76.23Z"/><path d="M399.61,148.26c7.5,0,15-.06,22.49,0,4.41,0,6.27-1.82,6.16-6.36-.22-8.49,0-17-.08-25.49,0-4.33,1.62-6.46,6.25-6.26,12.66.55,13.52-2.56,13.09,12.81-.13,4.48,1.84,6.17,6.24,6.32,12.25.43,12.39.41,12.45-11.51,0-7,.53-7.53,7.78-7.53,8.33,0,16.66.1,25,0,3.83-.07,5.56,1.57,5.57,5.3,0,15.06,1.11,14-12.53,13.85-4.77-.07-6.48,1.83-6.52,6.51-.1,12.56-.23,12.56,12.15,12.33,5.7-.1,6.77.9,6.91,6.5.33,12.74.33,12.74-12.23,12.72-5.73,0-6.7.89-6.75,6.61-.1,12.49,1.8,12.46-13,12.32-4.94,0-6.43-2.15-6.35-6.66.14-8.5,0-17,.07-25.49.05-4.3-1.93-6.06-6.11-5.87-11.84.55-13-2.38-12.54,12.4.16,5-1.75,6.7-6.78,6.63-14.49-.22-29,0-43.47.06-5.76,0-6.72.91-6.78,6.61-.12,12.3,2.07,12.52-13.07,12.42-4.88,0-6.41-2.2-6.32-6.72.16-8.16,0-16.33.05-24.49,0-6.13,1.08-7.12,7.41-7.13,7,0,14,0,21,0Z"/><path d="M342.32,147.27c-5.66,0-11.31.06-17,0-5.18-.07-7-1.78-7.13-6.79-.1-3.83,0-7.66,0-11.48,0-4.06,2.07-6.22,6-6.4,3.82-.17,7.65-.09,11.48-.15,5.4-.09,6.64-1.31,6.78-6.85.09-3.49,0-7,0-10.49,0-4.45,2-6.84,6.61-6.83,12,0,24,0,36,0,4,0,6.21,1.88,6.16,6.07s-.08,8.63,0,12.94c0,4.16-2.31,5.52-6,5.48s-7.33-.12-11,.06c-5.55.27-7,1.83-7.15,7.36-.09,3.49-.16,7,0,10.48.23,4.52-2.13,6.44-6.28,6.51-6.16.1-12.32,0-18.47,0Z"/><path d="M31.86,114c0-5.16.08-10.32,0-15.47-.07-3.74,1.48-5.59,5.32-5.48q5.24.14,10.48,0c3.83-.1,5.45,1.78,5.39,5.47,0,3.16.07,6.32,0,9.48-.13,4.25,2,6.07,6.08,6.06,3.16,0,6.32,0,9.48,0,3.7,0,5.55,1.72,5.5,5.46,0,3.33-.12,6.66,0,10,.12,4-1.83,5.85-5.7,5.85-10,0-20,.1-29.93,0-5.64-.06-6.51-1.1-6.55-6.88C31.84,123.68,31.86,118.86,31.86,114Z"/><path d="M236.07,22.27h5c9.33,0,10.81,1.51,10.79,11.09,0,4.48,0,9-.29,13.44s-2.8,6.51-7.22,6.48c-5.48,0-11,.08-16.44,0-5.11-.11-7.2-2.18-7.34-7.36-.15-5.48-.16-11,0-16.45.16-5.09,2.31-7,7.52-7.16h8Z"/><path d="M45.26,144.1c13.61,0,13.61,0,13.61,13.68,0,13.48,0,13.48-13.44,13.48-13.89,0-13.89,0-13.89-14.09C31.52,144.1,31.52,144.1,45.26,144.1Z"/><path d="M27.2,128.05c0,13.38,0,13.38-13.47,13.38C0,141.43,0,141.43,0,127.73S0,114.1,13.8,114.1C27.2,114.1,27.2,114.1,27.2,128.05Z"/><path d="M322.16,91.12c11.23,0,11.38.13,11.38,11.35,0,12.81,0,12.81-13,12.8-1.49,0-3-.08-4.48-.07-4.18,0-6.61-1.7-6.56-6.18q.05-5.46-.09-10.92c-.13-5.05,2.26-7.34,7.3-7C318.5,91.22,320.33,91.12,322.16,91.12Z"/></g></g></svg>