<svg xmlns="http://www.w3.org/2000/svg" viewBox="0 0 298.18 213.32"><title>Assest 9</title><g id="Layer_2" data-name="Layer 2"><g id="Layer_1-2" data-name="Layer 1"><path d="M151.8.51c10.83,0,21.66-.05,32.49,0,6.06,0,7.61,1.69,7.7,7.82.06,3.83,0,7.66,0,11.5.07,5.29,1.89,7.13,7.29,7.15,12.5.05,25,0,37.49,0,6.74,0,8.18,1.52,8.21,8.22,0,4-.07,8,0,12,.09,4.36-2.09,6.52-6.3,6.65s-8.66.06-13,.13c-5.25.08-7,1.66-7.18,6.73-.14,4.33-.08,8.66,0,13s2.21,6.46,6.54,6.43,8.66,0,13,0c4.56.05,6.76-2.17,6.75-6.7q0-6.5,0-13c0-4.43,2-6.72,6.73-6.68,13.33.11,26.66.08,40,0,4.29,0,6.6,1.77,6.57,6.21,0,4.66-.06,9.33,0,14,.07,4.47-2.41,6.33-6.51,6.44-4.33.11-8.67-.06-13,.09-5.31.18-6.75,1.72-6.83,7-.06,4.16.06,8.33,0,12.49-.1,4.65,2.3,6.7,6.71,6.76s9,0,13.49.07c4,.07,6.14,2.06,6.14,6.21q0,47,0,94c0,3.73-1.57,6.07-5.61,6.1-4.65,0-9.32.28-14,0-5.95-.32-7.07-1.65-7.08-7.72q-.05-29.49,0-59c0-2.33,0-4.67-.14-7-.25-3.76-2.24-5.73-6.14-5.68-4.5.06-9,.08-13.49,0-4.7-.09-6.63,2.44-6.69,6.8-.06,4.16,0,8.33,0,12.49-.08,5.25-1.66,6.91-6.79,7-4.16.09-8.33.07-12.49,0-5.61-.09-7.47-1.86-7.51-7.53-.09-12,0-24,0-36,0-8.63-1-9.62-9.87-9.63-3.33,0-6.66,0-10,0-4.24,0-6.5-2-6.47-6.42,0-4.16.11-8.33,0-12.49-.18-5.68-2-7.43-7.57-7.55-4-.08-8,.09-12-.06C167,80.28,165.06,78.32,165,73c-.07-12.66,0-25.32,0-38,0-6-1.68-7.79-7.67-7.84-11.83-.1-23.66,0-35.49,0-9,0-9.79-.8-9.83-9.56,0-2.83,0-5.66,0-8.49,0-7.36,1.25-8.59,8.81-8.62C131.14.49,141.47.51,151.8.51Z"/><path d="M97.07,62.12c0,17.33,0,34.65,0,52,0,7.57-1.17,9.09-8.77,9.41-4.81.21-9.64.15-14.46,0-6.07-.2-7.84-2.12-7.85-8.35q0-41,0-82c0-8.33,0-16.66,0-25,0-6,2.11-8.11,8.05-8.16,4.66,0,9.33,0,14,0,7.22,0,9,1.6,9.06,8.64.09,17.82,0,35.64,0,53.46Z"/><path d="M0,61.66C0,46.3.12,46.18,15.48,46.18c15.64,0,15.68,0,15.68,15.8,0,15.54,0,15.54-15.26,15.54C0,77.52,0,77.52,0,61.66Z"/></g></g></svg>