<svg xmlns="http://www.w3.org/2000/svg" viewBox="0 0 244.05 299.35"><title>Asset 3</title><g id="Layer_2" data-name="Layer 2"><g id="Layer_1-2" data-name="Layer 1"><path d="M69.25,206V176.55c-8.21,1.15-16.49,3.4-24.73,3.27C20.74,179.47,2.05,159.33,2,135.07s18.48-44.13,42.23-45.3c27.09-1.33,48.22,18.74,48.27,45.88,0,15.14,0,30.28,0,46,4.08,0,7.86.13,11.62,0,3.94-.18,4.86-3,4.83-6.3-.08-7.32-.37-14.64-.42-22-.05-6.44.94-7.38,7.52-7.52,3.83-.08,7.66.05,11.49-.07,3.16-.1,5.77-1.44,5.8-4.93.12-16.44.05-32.89.05-49.86H119.11c-3.6,0-5.67-1.5-5.61-5.37s.1-7.66,0-11.49c-.15-4.33,2.22-6,6.12-6.12,2.83-.09,5.67,0,8.5,0,7.16,0,7.91-.76,7.91-8.13q0-25,0-50c0-1.5,0-3,.07-4.5.19-3.39,2.1-5.1,5.41-5.35.5,0,1,0,1.5,0,16.77,0,16.13-1.46,16,15.34,0,7.66-.05,15.33,0,23,.05,5.79,1.19,7,7,7.27,3.49.17,7,0,10.5.08,3.21,0,4.95,1.66,5,4.94,0,4.17,0,8.33,0,12.5,0,3.63-2,5.09-5.31,5.17s-6.67,0-10,.06c-5.84.17-7.1,1.38-7.17,7.11q-.25,20.24-.35,40.48c0,6.5,1.31,7.79,7.92,7.88,1.63,0,3.25,0,5.39,0,0-11.65,0-22.77,0-33.89q0-3.25,0-6.5c0-4.34,2.34-6.38,6.55-6.42,3.83,0,7.67-.1,11.5,0,5.18.14,6.87,1.78,6.91,7,.09,10.16,0,20.33,0,30.49,0,6.61,1.2,7.87,7.81,8.12,3.83.15,7.66,0,11.5.07,3.43.05,5.21,1.78,5.18,5.29,0,3.83-.12,7.67,0,11.5.16,4.1-1.95,5.77-5.74,5.83-4.16.06-8.33,0-12.5.09s-6.43,2.18-6.3,6.57c.09,3,.06,6,0,9-.12,5.72-1.39,7-7.19,7-17.33,0-34.66-.09-52-.15h-6.16c0,10.58-1.4,21.1.41,31,1.7,9.35,10.85,3.6,16.6,4.61,4,.69,5.22-2.53,5-6.26-.16-3.16-.1-6.33,0-9.49.16-3.94,2-6,6.28-5.94,17.83.08,35.66-.06,53.48-.11,6.65,0,7.81-1.17,7.84-7.84a3.16,3.16,0,0,1,0-.5q1.07-6.38,2.15-12.77c5.77-.17,11.57-.62,17.31-.27,1.16.07,3,3.17,3,4.92.28,11,.19,22,.12,33,0,5.42-3.88,5.83-8,5.81q-25-.11-50-.17c-8.62,0-9.47.85-9.47,9.35,0,9.33,0,18.66,0,28,0,5.42-1.33,6.63-6.88,6.65-3.17,0-6.34-.13-9.5,0-4.24.21-6.19-1.95-6.37-5.9a99.06,99.06,0,0,1,0-10c.24-4.34-1.93-6.09-6-6.11-17.19-.08-16.31-1.34-16.25,15.12,0,6-.89,6.82-7.05,6.85-9.83,0-19.66,0-29.49.08a9,9,0,0,0-1.61.48c0,1.55,0,3.31,0,5.07,0,12.16,0,24.33,0,36.49,0,7-2,9-8.81,9.05q-36.24.19-72.47.33c-10.09,0-12-1.92-12-11.9Q0,252.23,0,217c0-9.38,1.66-11,11.11-11H69.25ZM46.83,98.16C34.35,96.91,20.9,104.88,14.32,117c-7.36,13.62-6,29.63,3.92,41.54,7.33,8.76,16.61,13.75,28.59,13.3ZM93.74,226.82l14.45-3.42c-.1-5.87,1.65-12.72-.81-17.34s-9.52-1.73-14.83-2Z"/></g></g></svg>