<svg xmlns="http://www.w3.org/2000/svg" viewBox="0 0 270.41 162.24"><title>Asset 8</title><g id="Layer_2" data-name="Layer 2"><g id="Layer_1-2" data-name="Layer 1"><path d="M.25,100.71q0-26,0-52c0-7.81.91-8.66,8.51-8.55,10.9.16,12.12-2.59,12,12.5-.13,20.16,0,40.33,0,60.49,0,6.32.88,7.16,7.29,7.18,8.83,0,17.66-.07,26.49,0,4.17,0,6.19-1.68,5.91-6a62.93,62.93,0,0,1,0-8c.28-4.41-2.07-6-6-6-2.83,0-5.67-.09-8.5,0-3.84.13-5.48-1.82-5.47-5.46,0-15.36-1.37-14.93,13.36-14.75,5.79.07,6.64-.84,6.62-6.69-.05-13.39,1.72-13.26-12.77-13.13-6.16.05-7.18-1-7.2-7.32,0-8.5,0-17,0-25.5,0-6.43-.87-7.3-7.15-7.33-8.83,0-17.67-.16-26.49.05C2.33,20.34.42,18.61.22,14.18-.44,0-.51,0,13.61,0c13.5,0,27,0,40.49,0,5.73,0,6.62.92,6.65,6.73,0,8.83,0,17.66,0,26.5,0,5.65,1.2,6.89,6.71,6.9q33.24.09,66.49,0c5.73,0,6.78-1.07,6.74-6.76-.12-15.3-.11-13.16,14.19-13.42,4.51-.08,6.29,1.82,6.22,6.27-.15,9-.09,18,0,27,0,5.61,1.28,6.89,6.67,6.92,9,.06,18-.07,27,.05,4.44.06,6.52-1.81,6.32-6.27-.08-1.83,0-3.67,0-5.5,0-8,.35-8.31,8.52-8.44,11.65-.19,11.65-.19,11.65,11.31,0,7.33,0,14.66,0,22,0,5.71,1.13,6.87,6.64,6.84,15.15-.06,13.31-.75,13.34,13.52q.07,29.74,0,59.49c0,6.85-.6,7.47-7.33,7.51-13.79.08-12.88.68-12.85-12.64,0-6.41-.87-7.31-7.14-7.34-8.83,0-17.66-.1-26.5,0-4.64.06-6.85-1.77-6.39-6.57.19-2,0-4,0-6,0-7.21.66-8.31,8-7.86,14.59.89,11.82-2.49,12-12.49.09-6.12-1.21-7.41-7.21-7.44-14.09-.07-12.73,1.43-12.78-13,0-5.72-1.38-7-7.12-7-12.86-.18-12.86-.18-12.86,12.75q0,30,0,60c0,6.84-.7,7.62-7.32,7.59-12.87-.06-13.16,1.8-13-13,.05-6.09-.86-6.94-6.93-7-8.83,0-17.67.08-26.49,0-4.39-.07-6.65,1.6-6.21,6.19,0,.17,0,.33,0,.5.23,14.52.14,13.37-13.28,13.35-7,0-14-.09-21,0-4.41.07-6.54-1.86-6.38-6.28,0-.5,0-1,0-1.5,0-12.7,1.43-12.33-12.61-12.26-6.83,0-13.67.15-20.5,0-4.63-.13-7,1.64-6.56,6.43,0,.17,0,.33,0,.5-.21,13.41-3,15.62-16.42,13-4-.78-4.08-3.83-4.08-6.9q0-22.5,0-45Q.25,104.71.25,100.71ZM140.74,90.58c0-8-.08-16,0-24,.06-4.37-1.69-6.36-6.22-6.32q-23.46.18-46.92,0c-4.59,0-6.84,1.87-6.84,6.45,0,15.63,0,31.25,0,46.88,0,4.72,1.88,6.85,6.89,6.79,15.64-.2,31.28-.13,46.92,0,4.45,0,6.31-1.87,6.22-6.33C140.63,106.23,140.75,98.4,140.74,90.58Z"/><path d="M270.31,120.76c0,11.66-.12,23.32.06,35,.07,4.71-1.71,6.58-6.48,6.5-16-.28-14.81,1.95-14.8-14.68q0-30.48,0-61c0-6.66.74-7.35,7.51-7.41q3.49,0,7,0c5.72.06,6.81,1.12,6.81,6.62q0,17.48,0,35Z"/></g></g></svg>