<svg xmlns="http://www.w3.org/2000/svg" viewBox="0 0 186.3 97.96"><defs><style>.cls-1{fill:#fff;}</style></defs><title>Asset 7</title><g id="Layer_2" data-name="Layer 2"><g id="Layer_1-2" data-name="Layer 1"><path d="M.07,48.45c0-14.32.1-28.64-.07-43C0,1.44,1.19,0,5.43,0Q48.89.24,92.35,0c3.82,0,5.44,1.19,5.43,5.11q-.11,43.71,0,87.42C97.8,96.8,95.9,98,92,98q-43.21-.12-86.42,0C1.57,98,0,96.59,0,92.41.18,77.76.07,63.1.07,48.45Zm83.33.45c0-10-.14-20,.07-30,.08-3.63-.91-5-4.74-4.93-20,.16-40,.14-59.93,0-3.39,0-4.67.94-4.64,4.53q.22,30.21,0,60.43c0,3.48,1,4.66,4.52,4.64q30.21-.17,60.43,0c3.72,0,4.4-1.52,4.35-4.77C83.3,68.88,83.4,58.89,83.4,48.9Z"/><path d="M139.8,96.16c-7.66,0-15.33.14-23,0-5.69-.14-7.63-1.77-7.71-7.48-.22-16.14-.11-32.29,0-48.43,0-3.7,2.37-5.92,6-6q9.24-.28,18.49,0c4.54.13,6.37,3.06,6.41,7.31,0,5.16-.08,10.33.05,15.49.15,5.63,2.34,7.88,7.92,8.07,5,.16,10,0,15,0,5.48.06,7.9,2.41,8,7.9.11,4.82.06,9.64,0,14.47-.06,6.35-2.47,8.77-8.78,8.81-7.49,0-15,0-22.48,0Z"/><path d="M167,7.09c4.66,0,9.32,0,14,0,3.47,0,5.31,1.45,5.24,5.06-.06,3-.17,6,0,9,.3,4.49-2,5.94-6.06,5.81-1.83-.06-3.66,0-5.49,0-7.16,0-7.84.7-8,8-.21,11.06-.21,11.06-11.4,11.28-7.66.15-8.2-.49-8.14-8.16.07-8.15,0-16.31-.15-24.47C147,9,148.71,6.79,153.54,7,158,7.27,162.52,7.08,167,7.09Z"/><path class="cls-1" d="M83.4,48.9c0,10-.1,20,.06,30,.05,3.25-.62,4.8-4.35,4.77q-30.21-.22-60.43,0c-3.48,0-4.54-1.16-4.52-4.64q.22-30.21,0-60.43C14.14,15,15.41,14,18.8,14c20,.11,40,.14,59.93,0,3.83,0,4.82,1.3,4.74,4.93C83.26,28.92,83.4,38.91,83.4,48.9ZM49,27.92c-5.33,0-10.66.17-16-.06-3.9-.16-5.4,1.4-5.36,5.23.11,10.48.08,21,0,31.46C27.69,68.24,29.06,70,33,70q16-.23,32,0c3.7,0,5.11-1.62,5.09-5.1q0-16,0-31.92c0-3.48-1.34-5.2-5.07-5.07C59.69,28.06,54.36,27.92,49,27.92Z"/><path d="M49,27.92c5.33,0,10.66.14,16,0,3.73-.13,5.08,1.59,5.07,5.07q-.06,16,0,31.92c0,3.47-1.39,5.14-5.09,5.1q-16-.2-32,0c-4,.06-5.33-1.73-5.31-5.41.06-10.49.1-21,0-31.46,0-3.84,1.46-5.4,5.36-5.23C38.37,28.08,43.7,27.92,49,27.92Z"/></g></g></svg>