<svg xmlns="http://www.w3.org/2000/svg" viewBox="0 0 181.27 104.21"><title>Asset 6</title><g id="Layer_2" data-name="Layer 2"><g id="Layer_1-2" data-name="Layer 1"><path d="M104.11,16.93c0,19.42-.09,38.06,0,56.7.06,8.48-.92,9.14-9.18,9.59C80.45,84,83.19,80.57,83,70.6c-.11-7.39-.62-8-8-8q-23.49,0-47,0c-6.09,0-7,.83-7,6.91C21,78.69,21,87.85,21,97c0,5.76-1.2,6.9-7,7.08-14.06.43-14,.43-14-13.73Q.14,48.64.17,6.92C.18,1.15,1.11.13,6.69.09c2,0,4,0,6,0,7.74,0,8.68.66,8.43,8.58C20.72,20.79,20.74,21.07,34,20.93c7-.08,7.91.89,7.67,8.13-.4,12.29,0,12.68,12.25,12.53,7.44-.09,8.31-.89,8.22-8.36C62,19.29,62.52,21,74.33,20.92,82,20.9,83,20.15,83,12.38,83-1,82.51.08,96.22.09c26.32,0,52.64.1,79-.09,4.65,0,6.52,1.55,6,6.07a13.49,13.49,0,0,0,0,1.5c0,9.32,0,9.32-9.37,9.35-6.82,0-7.08.28-7.13,7,0,1.5,0,3,0,4.5,0,3.23-1.29,5.08-4.77,4.86-.33,0-.67,0-1,0-12.73-.34-10.44.84-10.78,11.48-.12,3.85,2,4.86,5.17,5.18,3.53.36,8.2-.32,10.23,1.65,1.87,1.81,1,6.55,1.13,10s1.64,4.9,5,4.68c.17,0,.33,0,.5,0,12.92-.53,10.86.39,11,12.66,0,2.94-1.49,4.18-4.35,4.18q-28.74,0-57.48,0c-3.15,0-4.6-1.48-4.65-4.52,0-.5,0-1,0-1.5-.25-10.67-.25-10.82,10.39-10.75,4.44,0,6.28-1.37,6.19-6.05-.24-12.49-.2-25,0-37.48.06-4.24-1.25-6.09-5.7-5.93C118.59,17.11,111.62,16.93,104.11,16.93Z"/></g></g></svg>