<svg xmlns="http://www.w3.org/2000/svg" viewBox="0 0 160.17 160.17"><defs><style>.cls-1{fill:#fff;}</style></defs><title>Asset 5</title><g id="Layer_2" data-name="Layer 2"><g id="Layer_1-2" data-name="Layer 1"><path d="M160.17,80q0,36.49,0,73c0,6-1.08,7.15-6.88,7.15q-73,0-146,0c-5.9,0-7.29-1.45-7.29-7.47q0-73,0-146C0,1,1.08,0,6.79,0Q80,0,153.26,0c6,0,6.9.92,6.9,7Q160.19,43.52,160.17,80Zm-80,57h50.47c6.4,0,6.55-.13,6.55-6.32,0-33.81-.07-67.62.09-101.43,0-4.77-1.38-6.36-6.25-6.34q-51,.27-101.93,0c-4.56,0-6.16,1.37-6.14,6q.19,51.22,0,102.43c0,4.26,1.29,5.84,5.74,5.79C45.83,136.87,63,137,80.15,137Z"/><path class="cls-1" d="M80.15,137c-17.16,0-34.31-.13-51.46.09-4.45.06-5.75-1.53-5.74-5.79q.17-51.22,0-102.43c0-4.59,1.58-6,6.14-6q51,.24,101.93,0c4.88,0,6.28,1.57,6.25,6.34-.17,33.81-.08,67.62-.09,101.43,0,6.19-.16,6.32-6.55,6.32ZM47.9,91.45c3,0,6,.14,9,0,3.87-.22,6.22-2.35,6.31-6.3.13-6.14.11-12.29,0-18.43-.07-3.72-2.17-6-5.88-6.09-6.29-.19-12.6-.22-18.9,0-4.23.13-6.17,2.83-6.2,6.92q-.07,8.47,0,16.94c0,4.43,2.42,6.76,6.75,7C41.91,91.59,44.91,91.46,47.9,91.45ZM63.34,115.8c0-15.49-.14-15.63-15.35-15.63-15.78,0-15.82,0-15.82,15.64s0,15.7,15.57,15.7S63.34,131.51,63.34,115.8Z"/><path d="M47.9,91.45c-3,0-6,.13-9,0-4.32-.23-6.72-2.55-6.75-7q-.06-8.47,0-16.94c0-4.08,2-6.79,6.2-6.92,6.29-.2,12.6-.17,18.9,0C61,60.7,63.1,63,63.17,66.68c.12,6.14.14,12.29,0,18.43-.09,4-2.44,6.08-6.31,6.3C53.89,91.59,50.89,91.45,47.9,91.45Z"/><path d="M63.34,115.8c0,15.7,0,15.7-15.59,15.7s-15.57,0-15.57-15.7,0-15.64,15.82-15.64C63.2,100.17,63.34,100.31,63.34,115.8Z"/></g></g></svg>