<svg xmlns="http://www.w3.org/2000/svg" viewBox="0 0 78.21 204.59"><title>Asset 4</title><g id="Layer_2" data-name="Layer 2"><g id="Layer_1-2" data-name="Layer 1"><path d="M31.09,160.36c0,12.31,0,24.61,0,36.92,0,5.62-1.36,7.18-6.93,7.26-5.82.09-11.64,0-17.46,0-4.38,0-6.72-1.88-6.7-6.64q.14-37.42,0-74.84c0-4.72,2.13-6.68,6.61-6.67,6,0,12,.07,17.92,0,4.54-.07,6.73,1.91,6.69,6.57-.09,12.47,0,24.94,0,37.41Z"/><path d="M47,184.18c0-15.33.12-15.44,15.52-15.45,15.61,0,15.65,0,15.65,15.83,0,15.51,0,15.51-15.29,15.51-2.66,0-5.32.07-8,0-5.74-.21-7.79-2.27-7.89-7.9C47,189.49,47,186.83,47,184.18Z"/><path d="M74,16c0,15.07,0,15.07-15.13,15.07-3,0-6,.06-9,0-4.31-.15-6.87-2.29-6.94-6.76q-.13-8.71,0-17.43c.05-4.15,2.27-6.6,6.42-6.72,6-.18,11.93-.12,17.9,0C71.8.15,74,2.67,74,7,74.08,10,74,13,74,16Z"/><path d="M74.21,81.69c0,15.38,0,15.38-15.42,15.38-3,0-6,.07-9-.1-4.35-.25-6.67-2.72-6.75-7.05-.1-5.48-.14-11,0-16.44.13-5.21,2.37-7.48,7.74-7.68,5.14-.2,10.3-.19,15.44,0,5.88.2,7.81,2.38,7.93,8.44C74.25,76.71,74.21,79.2,74.21,81.69Z"/></g></g></svg>