<svg xmlns="http://www.w3.org/2000/svg" viewBox="0 0 128.07 178.77"><title>Asset 2</title><g id="Layer_2" data-name="Layer 2"><g id="Layer_1-2" data-name="Layer 1"><path d="M121.07,132.33c0,12.16-.07,24.33,0,36.49.06,8.17-1.54,9.9-9.85,9.92-4.33,0-8.67.07-13,0-6-.13-8.18-2.21-8.19-8.13q-.06-38.49,0-77c0-5.6,2.28-7.77,7.95-7.84,5.16-.07,10.33-.08,15.49,0,5.53.1,7.47,1.9,7.53,7.59C121.16,106.34,121.07,119.33,121.07,132.33Z"/><path d="M47,132.08c0-12.5,0-25,0-37.49,0-6.87,2-8.8,9-8.84q6.49,0,13,0c7.41.05,9.09,1.52,9.11,9.12.07,23.16,0,46.31-.08,69.47,0,2.66.11,5.33,0,8-.18,4-2.37,6.21-6.31,6.31-6,.15-12,.23-18,0-4.79-.19-6.66-2.6-6.68-8C47,157.74,47,144.91,47,132.08Z"/><path d="M97.09,32.41c7.65,0,15.29,0,22.94,0,5.8,0,7.87,2,8,7.71.1,5.32.05,10.64,0,16,0,4.61-2.52,7.29-7,7.33q-23.93.22-47.87,0c-4.69,0-7.3-2.7-7.23-7.64.07-5.48,0-11,.06-16.45,0-4.76,2.6-6.93,7.21-6.93Z"/><path d="M44.25,0a28.85,28.85,0,0,0,5.09.33c7.94-.77,10.05,2,9.85,10.4-.11,4.48-.13,9-.14,13.46,0,4.7-2.44,7.1-7,7.19-5.65.11-11.31.13-17,0-4.56-.12-7-2.55-7-7.25,0-5.65-.07-11.3,0-17C28.13,2.76,30.4.46,34.91.4,37.9.36,40.88.15,44.25,0Z"/><path d="M15.5,32c2.32.14,4.64.32,7,.41,7.14.29,8.47,1.5,8.61,8.46.11,5.31,0,10.63-.06,15.95-.09,4.23-2.55,6.43-6.61,6.55-5.82.17-11.64.16-17.46,0C2.64,63.24.1,61,.06,56.49,0,50.67,0,44.86.07,39c.08-4.12,2.18-6.53,6.46-6.61,3-.06,6,0,9,0Z"/></g></g></svg>