<svg xmlns="http://www.w3.org/2000/svg" viewBox="0 0 168.73 255.94"><title>Asset 14</title><g id="Layer_2" data-name="Layer 2"><g id="Layer_1-2" data-name="Layer 1"><path d="M93.55,155.52c0-12.48,0-25,0-37.44,0-6.91,2-8.91,8.89-9,4.82-.08,9.65-.11,14.47,0,5.85.18,7.74,2.1,7.77,7.93.06,14.64,0,29.29,0,43.93,0,8,2,10,10,10.08,4.66,0,9.32-.06,14,0,4.29.09,6.92,2,6.9,6.68q0,9,0,18c0,4.17-2.49,6.22-6.25,6.25q-24.46.22-48.92,0c-4.6,0-6.8-2.76-6.83-8C93.5,181.15,93.55,168.33,93.55,155.52Z"/><path d="M168.63,21.39c0,4.5,0,9,0,13.49.05,5.51-1.18,6.88-6.56,7-3,.05-6,0-9,.06-3.2,0-5,1.61-5,4.89s-.24,6.31-.11,9.46c.16,4.1-1.44,6.32-5.75,6.28-3.33,0-6.66,0-10,.14-3.13.13-4.92,1.65-4.85,5,.07,3-.15,6-.06,9,.13,4.21-1.31,6.74-6,6.54-3.33-.14-6.66,0-10,0s-4.94-1.56-4.93-4.88c0-2.83,0-5.67,0-8.5-.13-6.07-1.24-7.14-7.43-7.27-2.83-.06-5.67.06-8.49-.08-3.12-.15-5-1.73-4.9-5.05,0-.17,0-.33,0-.5.29-15.81-2.54-15.48,14.7-15.39,6.5,0,13,0,19.49,0,6.06,0,7.25-1.22,7.29-7.37.07-9.15.14-18.3,0-27.45C126.9,2,128.77-.05,133.46,0c9.49.11,19,0,28.49.05,5.48,0,6.6,1.19,6.73,6.85.11,4.83,0,9.66,0,14.49Z"/><path d="M40.55,108.65c0-8.66.06-17.32,0-26,0-4.57,1.9-6.85,6.6-6.65,2.66.11,5.33,0,8,0,6.72,0,7.58.84,7.59,7.41,0,9.66,0,19.32,0,29,0,6.06,1.34,7.44,7.24,7.43,16.92,0,14.42-.9,14.57,14.86.06,6.26-1,7.29-7.16,7.31-10,0-20,.05-30,0-5.27,0-6.79-1.57-6.83-6.88C40.5,126.3,40.55,117.47,40.55,108.65Z"/><path d="M31.55,109.29c0,7.49,0,15,0,22.48,0,5.88-2.29,8.27-8,8.4-5.16.11-10.32.14-15.47-.06S.57,137.94.52,132.83Q.28,109.1.5,85.38c0-5.15,2.24-7.13,7.5-7.3s10.66-.16,16,0,7.48,2.3,7.54,7.75C31.62,93.64,31.55,101.47,31.55,109.29Z"/><path d="M31.46,38.87c7.81,0,15.63-.06,23.44,0,5.41.06,7.51,2.13,7.62,7.56s.13,10.64,0,16c-.13,5-2.33,7.44-7.37,7.5q-23.68.25-47.37,0C2.69,69.84.61,67.45.46,62.41S.31,52.1.42,46.95c.13-6.17,2-8,8.11-8.07C16.17,38.82,23.82,38.87,31.46,38.87Z"/><path d="M128,224.45l5.49.38c8.36.55,9.44,1.56,9.55,9.72.07,5-.16,9.94-.3,14.92-.11,4.05-2.47,6.18-6.28,6.32-6,.21-12,.19-18,0-4.38-.13-6.65-2.75-6.72-7.08-.09-5.65-.12-11.31,0-17,.1-4.28,2.18-6.83,6.76-6.9C121.51,224.81,124.49,224.61,128,224.45Z"/><path d="M16,154c15.39,0,15.39,0,15.39,15.55s0,15.63-15.84,15.61c-2.82,0-5.65-.09-8.47-.12-4.77,0-6.92-2.7-7-7.22C0,172.54,0,167.22.08,161.91c.13-5.7,2.27-7.74,7.93-7.86C10.67,154,13.33,154,16,154Z"/><path d="M103.37,32.6c-1.16-.1-2.31-.22-3.47-.31-12.35-.88-12.35-.88-12.35-13.53,0-3.49-.11-7,.06-10.46.23-4.52,2.66-7,7.29-7.08,5.48-.05,11-.13,16.44,0,5.26.14,7.23,2.12,7.34,7.28q.18,8.22,0,16.45c-.11,5.19-2.11,7.09-7.35,7.22-2.65.07-5.3,0-8,0Z"/></g></g></svg>