<svg xmlns="http://www.w3.org/2000/svg" viewBox="0 0 231.69 186.19"><title>Asset 13</title><g id="Layer_2" data-name="Layer 2"><g id="Layer_1-2" data-name="Layer 1"><path d="M182.66,186.08c-14.15,0-28.3-.12-42.45.07-4.3.06-6.18-1.63-6.17-5.78q0-23.47,0-46.95c0-4.13,1.76-6,6.06-5.93,15.54.14,13.51-1.08,13.6,13.18,0,6.49.09,13,0,19.48-.07,4.39,1.88,6.43,6.28,6.4,8.82-.07,17.65-.05,26.47,0,4.36,0,6.21-1.88,6.17-6.39-.12-13.23-1.82-13.59,13.2-13.08,4.53.15,6.41-2,6.22-6.36,0-.33,0-.67,0-1,.16-12,4.34-15.18,16.19-11.85,1.47.41,3.3,3,3.32,4.6.24,16.31.16,32.63.14,48.94,0,4.53-3.17,4.8-6.56,4.79q-21.22,0-42.45,0Z"/><path d="M176,62.2c-7.16,0-14.33.09-21.49,0s-9.22-1.62-9.31-8.63c-.21-15.65,0-31.3.14-46.95,0-4.18,2.48-6.44,6.65-6.51,5.66-.1,11.33-.13,17,0,5.1.11,7.2,2.25,7.33,7.42s-.07,10.33.07,15.49c.16,5.6,2.36,7.83,8,8,5,.15,10,0,15,0,5.45.06,7.85,2.43,8,8,.1,5,.09,10,0,15-.1,5.69-2.57,8.16-8.33,8.23C191.34,62.27,183.68,62.2,176,62.2Z"/><path d="M194.58,112.21c-15.56,0-15.56,0-15.56-15.81C179,81,179,81,194.11,81c16.24,0,16.24,0,16.24,16.11C210.35,112.21,210.35,112.21,194.58,112.21Z"/><path d="M37,61c9.66,0,19.32,0,29,0,5.65,0,7.4,1.76,7.41,7.5q.06,29.23,0,58.46c0,5.82-1.54,7.47-7.43,7.49q-29.23.13-58.46,0c-5.78,0-7.4-1.81-7.42-7.6Q0,97.42,0,67.94c0-5.22,1.68-6.84,6.93-6.88C17,61,27,61,37,61Z"/></g></g></svg>