<svg xmlns="http://www.w3.org/2000/svg" viewBox="0 0 325.08 156.03"><title>asset-12</title><g id="Layer_2" data-name="Layer 2"><g id="Layer_1-2" data-name="Layer 1"><path d="M77.55,1q34,0,68,0c7.3,0,9.47,2,9.51,9.43,0,4.5.13,9,0,13.49-.21,5.94-2.43,8-8.35,8.09-5,.06-10-.12-15,.1-5.58.25-7.42,2.2-7.58,7.75-.14,4.83,0,9.66-.05,14.49-.08,6.35-2.4,8.6-8.85,8.66-4.5,0-9,0-13.49,0-6.41.1-8.45,2-8.61,8.3q-.17,7,0,14c.14,6.07,2.37,8.3,8.61,8.49,4.83.15,9.66,0,14.49.05,5.73.09,7.75,2.1,7.85,7.88.09,4.83,0,9.66,0,14.49.11,6,2,8.16,8,8.48,4.81.26,9.65,0,14.48,0,5.66-.05,8.3,2.38,8.43,8.07.11,4.66.09,9.33,0,14-.12,7.1-2.18,9.09-9.42,9.1q-44.23,0-88.46,0c-5.66,0-11.33.25-17,.11-7.15-.18-9.38-2.77-9.21-10,.1-4.33,0-8.66.1-13,.09-6.23,1.89-8.05,8-8.15,5.16-.08,10.34.11,15.47-.29,5.52-.43,7.33-2.65,7.34-8q0-38.2,0-76.41c0-5.66-2.32-8-8.34-8.07C38.67,32,23.84,32,9,32,2,32,.09,30.1,0,23.2,0,18.37,0,13.54.06,8.71.17,3.24,2.21,1,7.6,1c23.32-.08,46.64,0,70,0Z"/><path d="M254.32,32.27c0,7-.1,14,0,21,.14,7.78-1.79,9.91-9.44,9.95-4.5,0-9-.17-13.49.09-6,.34-7.92,2.5-8,8.51-.09,5,.07,10-.05,15s-2.41,7.26-7.42,7.38-10-.09-15,.07c-6.29.2-8.37,2.32-8.53,8.55-.12,5,.06,10-.06,15s-2.31,7.25-7.39,7.38q-8,.19-16,0c-5.39-.14-7.53-2.27-7.7-7.69-.16-5,0-10-.06-15-.08-5.93-2.14-8.07-8.16-8.24-5-.14-10,.05-15-.06-5.2-.12-7.65-2.51-7.79-7.68-.13-5-.15-10,0-15,.21-6.25,2.32-8.39,8.62-8.43q21-.15,42,0c9.48.09,11.33-1.6,11.33-11.25q0-20.74,0-41.49c0-7,2.13-9.14,9.31-9.16q22,0,44,0c6.68,0,8.59,1.82,8.74,8.57.16,7.49,0,15,0,22.48Z"/><path d="M293.65,62.19c-7.16,0-14.33.09-21.49,0s-9.18-1.64-9.27-8.68c-.21-15.65,0-31.3.15-46.95,0-4.19,2.53-6.4,6.7-6.47q8.74-.13,17.49,0c4.47.07,6.68,2.64,6.77,7,.11,5.33-.07,10.67.08,16,.16,5.57,2.4,7.79,8,8,4.83.15,9.66,0,14.49,0,5.86,0,8.3,2.3,8.41,8q.15,7.48,0,15c-.11,5.67-2.59,8.12-8.38,8.18C309,62.25,301.31,62.19,293.65,62.19Z"/></g></g></svg>