<svg xmlns="http://www.w3.org/2000/svg" viewBox="0 0 402.19 161.54"><title>Asset 4</title><g id="Layer_2" data-name="Layer 2"><g id="Layer_1-2" data-name="Layer 1"><path d="M89,124.2c-6.2,0-12-.09-17.86,0-6.86.14-9,2.29-9.06,9-.07,4.83.08,9.67,0,14.5-.13,5.13-2.26,7.37-7.34,7.4q-23.75.13-47.49,0c-5,0-7-2.12-7.11-7-.12-5.49-.11-11,0-16.49.1-5.32,2.26-7.45,7.71-7.59,4.83-.13,9.66,0,14.5,0,6.54,0,8.58-2.07,8.59-8.75q0-36.74,0-73.49c0-8.93,1.64-10.58,10.39-10.59,4,0,8,0,12,0,6.49.08,8.74,2.27,8.76,8.71,0,14.66,0,29.33,0,44,0,7.28,1.88,9.1,9.18,9.12,5.82,0,11.65,0,17.77,0,9.35-24.5,26.87-38.53,53.83-37.28,23.91,1.11,39.6,14.61,48.41,37.06,6.09,0,12.37.23,18.63-.08,4-.2,6.33-2.69,6.33-6.92,0-5.5,0-11,0-16.5,0-4.76-2.5-7-7.1-7.11-4.83-.07-9.66,0-14.49,0-6.87,0-9.31-2.35-9.39-9.3-.05-4.67-.15-9.34,0-14,.23-5.61,2.54-7.77,8.11-7.85,5-.07,10,.09,15-.06,5.69-.17,7.73-2.31,7.82-8,.08-5-.07-10,0-15,.14-5.57,2.46-7.82,8-7.9,5-.08,10-.05,15,0,5.64.05,8.16,2.17,8.21,7.7.13,14.33.17,28.66-.12,43-.18,8.68,2.24,11.42,11,11.19,4-.1,8,0,12-.05,5.42-.13,7.52-2.17,7.67-7.58.15-5,0-10,.16-15,.26-6.46,2.16-8.25,8.59-8.26q36.74,0,73.49,0c9.1,0,10.77-1.68,10.78-10.74,0-4.33,0-8.67,0-13,.07-4.62,2.47-7.14,7.11-7.22,5.66-.1,11.33-.08,17,0,4.4.06,6.89,2.34,6.91,6.8.08,16,.15,32,0,48,0,4.92-2.4,7.08-7.65,7.24-6.16.19-12.32,0-18.49,0q-28.74,0-57.48.06c-6.83,0-9.22,2.28-9.25,9.38q-.09,21.5,0,43c0,7.4-2,9.52-9.37,9.55-4.5,0-9,.08-13.5,0-5.68-.12-7.9-2.16-8.16-7.79-.23-5.15-.07-10.32-.2-15.48-.13-5.33-2-7.44-7.1-7.63-5.49-.2-11-.16-16.49,0-4.33.14-6.76,2.55-6.84,7-.09,4.83,0,9.67-.07,14.5-.14,7.58-2,9.43-9.54,9.44-14.5,0-29,0-43.49,0-2.42,0-3.72.46-4.77,3-9.11,22.26-27.64,34.77-50.62,34.5-22.09-.26-40.5-13.47-49.17-35.27C89.7,125.66,89.4,125.07,89,124.2Zm73.18-14.33c-.16-16.7-6-29.57-16.44-40.49-3.28-3.43-7.2-5.16-12.13-4.36-20.72,3.37-37,21.71-37.37,42.08a44.56,44.56,0,0,0,36.6,44.77c4.55.84,8.42,0,11.89-3.36C156,137.49,161.86,124.19,162.17,109.87Z"/></g></g></svg>