<svg xmlns="http://www.w3.org/2000/svg" viewBox="0 0 46.09 545.28"><title>Asset 10</title><g id="Layer_2" data-name="Layer 2"><g id="Layer_1-2" data-name="Layer 1"><path d="M21.17,175.64q0,79.21,0,158.41a68.72,68.72,0,0,1-.72,9.94c-1,7-1.4,6.9-8.65,7.21-5.07.21-7.46-1.69-7.73-6.66-.21-3.82-.83-7.62-.83-11.44q-.07-157.66,0-315.33a63.94,63.94,0,0,1,.56-9C5-.07,5.09.14,13.95,0c4-.06,6,1.54,6.23,5.32.45,7,1,13.94,1.06,20.91q.14,74.71,0,149.41Z"/><path d="M.14,492.54c0-13.83-.17-27.65.06-41.48.15-9,2.45-11,11.47-11,3.67,0,7.33.11,11,0,4.41-.16,6.9,2,7.75,6.12a30.24,30.24,0,0,1,.72,5.92q.07,40.48,0,81a23.26,23.26,0,0,1-1.27,7.31c-1.12,3.29-3.58,5-7.27,4.89s-7.66-.12-11.49-.07C3.25,545.3.44,543,.23,535c-.3-11.82-.18-23.65-.23-35.48,0-2.33,0-4.66,0-7Z"/><path d="M11.83,403.25c-6.75-.1-11-4.59-10.82-11.53.12-6.26,4.87-10.72,11.31-10.64a10.65,10.65,0,0,1,10.85,11.12C23.13,398.95,18.61,403.35,11.83,403.25Z"/><path d="M35.63,22.09a9.67,9.67,0,0,1-10-10C25.64,6,29.83,1.86,36,1.93a9.81,9.81,0,0,1,10.05,10C46.09,17.87,41.67,22.15,35.63,22.09Z"/></g></g></svg>