<svg xmlns="http://www.w3.org/2000/svg" viewBox="0 0 157.09 187.43"><defs><style>.cls-1{fill:#fff;}</style></defs><title>Asset 9</title><g id="Layer_2" data-name="Layer 2"><g id="Layer_1-2" data-name="Layer 1"><path d="M31.43,156.25h6.14q53.2,0,106.4,0a33,33,0,0,1,6.44.53c4.49.9,6.94,3.47,6.66,8.4-.23,4.15,0,8.32-.05,12.49,0,6.54-2.27,9-8.81,9.52-3.15.24-6.32.21-9.48.22q-61.19,0-122.39,0C1.23,187.41,0,186.2,0,171.4c0-10.49-.08-21,.05-31.47a33.2,33.2,0,0,1,1.16-8.35c1-3.54,3.38-5.52,7.38-5.36,4.32.17,8.65,0,13,0,6,.09,8.41,1.93,9.11,8.15.61,5.43.36,11,.5,16.45C31.24,152.5,31.34,154.12,31.43,156.25Z"/><path d="M126.19,83.25c7.49,0,15-.06,22.46,0,5.14.05,7.27,2.17,7.35,7.25.08,5.32,0,10.65,0,16,0,4.48-2.25,6.76-6.77,6.76-5,0-10-.11-15,.06-5.89.2-8.05,2.39-8.21,8.33-.13,4.65.08,9.32.05,14,0,5.22-2.42,7.68-7.58,7.74s-10.31.06-15.47,0c-4.37-.06-7-2.38-7.07-6.72q-.18-23.45.06-46.91c0-4.43,2.77-6.5,7.17-6.48C110.89,83.28,118.54,83.25,126.19,83.25Z"/><path d="M79.87,0,119,70.85H40.7Zm25,63.26-25-46.21-25,46.21Z"/><path d="M16.36,72.25c-2.33,0-4.65,0-7,0C2.6,72.09.73,70.35.56,63.73c-.13-5-.17-10,.05-15,.25-5.5,2.36-7.43,7.76-7.51s10.64,0,16,0c4.68-.07,7.29,2.19,7.45,6.78.2,5.81.21,11.64,0,17.45-.15,4.23-2.4,6.79-6.94,6.78Z"/><path d="M15.35,115.42c-14.88,0-15.39,0-15-14.79C.72,88-2.61,84.64,15.82,85c15.2.31,15,.07,15.24,14.82C31.3,117.8,29.42,115.33,15.35,115.42Z"/><path class="cls-1" d="M104.82,63.26H54.92l25-46.21Z"/></g></g></svg>