<svg xmlns="http://www.w3.org/2000/svg" viewBox="0 0 388.05 444.09"><title>Asset 6</title><g id="Layer_2" data-name="Layer 2"><g id="Layer_1-2" data-name="Layer 1"><path d="M71.07,74.95c-5.95,0-11-.16-16.11.06-3.42.15-4.89,2.5-4.93,5.76,0,4.17,0,8.33,0,12.5s-2.09,6.46-6.44,6.46q-18.5,0-37,0c-4.26,0-6.52-2-6.51-6.39C0,89.16,0,85,0,80.83s2-6.15,6.18-6.11,8,0,12,0c4.46,0,6.77-2.29,6.78-6.79,0-4,.11-8-.06-12-.16-3.67-2-5.9-6-5.89S11.3,50,7.47,50C1.87,50,.05,48.18,0,42.49c0-3.66,0-7.33,0-11-.05-4.62,2.31-6.67,6.8-6.62q5.25.06,10.5,0c6-.06,7.57-1.69,7.67-7.81.05-3.17,0-6.33,0-9.5.05-6,1.43-7.43,7.27-7.51q5.25-.07,10.5,0c5.4.07,7.18,1.79,7.21,7.19.06,11.33,0,22.66,0,34,0,7.12,1.71,8.66,9,8.49,2.67-.06,5.33,0,8,0,5.86,0,7.27-1.35,7.61-7.31.15-2.66.06-5.33.07-8,0-8.69.82-9.52,9.3-9.53h56.5c7.43,0,8.68-1.27,8.71-8.7,0-3.33,0-6.67,0-10,0-3.85,1.91-6,5.71-6.08,4.66-.13,9.34-.15,14,0,3.31.12,5.25,2,5.26,5.44,0,12.83.06,25.66,0,38.5,0,1.58-.76,3.16-1.27,5.14,20.87,12,34,30,38.78,54.52H217c12.5,0,25,.08,37.5,0,7.46-.07,9.46-2.22,9.5-9.61,0-4.17,0-8.33,0-12.5.07-7.09,1.8-8.84,8.92-8.85q47.75,0,95.49,0c3.83,0,7.67,0,11.5,0,6,.09,8,2.07,8.07,8.17.07,5,.11,10,0,15-.14,5.46-2.12,7.57-7.56,7.83-5,.24-10,.11-15,.16-6.21.06-8.36,2.11-8.39,8.44-.07,14.67,0,29.33,0,44,0,7.5-1.89,9.34-9.52,9.39-4.33,0-8.67.07-13,0-6.41-.12-8.4-2.1-8.46-8.36,0-4.83.11-9.67,0-14.5-.19-5.85-2.1-7.79-7.84-7.94-5.33-.14-10.66,0-16,0-4.83,0-6.91,2.68-6.95,7.24,0,5.17.07,10.33,0,15.5-.11,5.61-2.34,7.91-7.9,8.07-5.16.14-10.33-.06-15.5.07S264.33,168,264.2,173c-.14,5.33,0,10.66,0,16,0,4.38,2.22,6.84,6.6,7.21,1.82.15,3.66.15,5.49.15H377.75c8.77,0,10.23,1.47,10.24,10.11,0,4.33.06,8.67,0,13-.09,5.54-1.8,7.6-7.37,8-5,.37-10,.16-15,.22-6.55.07-8.54,1.8-8.59,8.18q-.16,22.5,0,45c0,6.08,2.18,8.06,8.17,8.14,4.83.07,9.67-.07,14.5,0,5.71.14,8.22,2.61,8.25,8.34q.12,22.75,0,45.5c0,5.78-2.41,8.25-8.15,8.44-4.83.16-9.67,0-14.5.07-6.16.14-8.22,2-8.27,8.07q-.18,22.75,0,45.49c0,5.74,2.28,7.78,8,7.88,5,.09,10-.08,15,.05,5.58.14,7.85,2.45,7.95,8,.09,5.16.1,10.33,0,15.5-.11,5.38-2.26,7.5-7.67,7.62-4.5.1-9,0-13.5,0h-153c-10.36,0-11.9-1.58-11.68-11.77.08-3.83,0-7.67,0-11.5.11-5.4,2.12-7.47,7.54-7.84,1.49-.1,3-.05,4.5-.05h102c7.54,0,9.76-2.19,9.78-9.82q.06-20.75,0-41.5c0-8.49-1.77-10.15-10.31-10.17-4.5,0-9-.07-13.5.05s-7,2.66-7,7.3c0,5.17.06,10.33,0,15.5-.09,5.33-2.35,7.88-7.45,8-5.64.13-11.3-.09-16.94-.2-4.55-.09-6.62-2.71-6.71-7-.1-5.16,0-10.33-.07-15.5-.14-6.06-2.11-8-8.22-8.12-4.66-.1-9.33-.08-14,0-6.49.11-8.49,2.18-8.58,8.84-.06,4.5,0,9,0,13.5,0,5.83-2.09,8.25-8,8.53-4.31.21-8.65-.23-13-.21-10.66.05-21.32.2-32,.32-7,.09-8.91,1.95-8.93,8.9,0,14.5,0,29,0,43.5,0,7.47-1.75,9.21-9,9.25-4.83,0-9.67.08-14.5,0-5.17-.12-7.55-2.2-7.57-7.22q-.15-39.25,0-78.49c0-5,2.66-7.21,8.15-7.24,14.5-.06,29,0,43.5,0,8.4,0,10.28-1.82,10.29-10.25q.06-51.75,0-103.49c0-7.95-1.76-9.57-9.76-9.58-4.5,0-9,.16-13.5-.08-5.61-.3-7.66-2.61-7.72-8.24,0-4.33,0-8.66,0-13,0-8.58,1.49-10,10.31-10,13.67,0,27.33,0,41,0,8.74,0,10.56-1.88,10.54-10.51,0-13.83,0-27.66,0-41.5,0-7.88-1.72-9.57-9.72-9.64-4.15,0-8.3,0-12.68,0-6.89,24.75-21.55,42.81-45.2,52.73-18.92,7.94-38.31,8.28-57.45.69-22.36-8.86-37.57-24.9-45-47.76C55.51,117.76,58.66,96.09,71.07,74.95ZM279.29,227.68v0c-12.49,0-25,0-37.48,0-6.57,0-8.62,2-8.63,8.69q-.06,37.23,0,74.46c0,6.63,2.51,9.14,9,9.16q37.48.07,75,0c6.54,0,8.76-2.15,8.8-8.66.09-14.82,0-29.65,0-44.48,0-10.15.09-20.3,0-30.45-.08-6.62-2.41-8.79-8.69-8.78Q298.28,227.7,279.29,227.68Zm-142.9-47.47c24.3-1.17,43-11.4,54.56-32.15,12.88-23.08,11.75-46.45-3.44-68.29C175.34,62.27,157.95,53.86,136.39,53Z"/></g></g></svg>