<svg xmlns="http://www.w3.org/2000/svg" viewBox="0 0 427.16 405.34"><title>Asset 7</title><g id="Layer_2" data-name="Layer 2"><g id="Layer_1-2" data-name="Layer 1"><path d="M110,350.41c0,16.19,0,31.81,0,47.44,0,6.33-1.22,7.57-7.53,7.44-3.16-.07-6.33,0-9.5-.08s-4.92-1.8-5-5c-.05-3.5,0-7,0-10.5,0-4.29-1.86-6.51-6.37-6.32-3.33.15-6.66,0-10,0-3.64,0-5.56-1.9-5.61-5.55,0-3.17,0-6.33,0-9.5-.08-5.51-1.36-6.84-6.7-6.93-2.83,0-5.67.11-8.5,0-4.79-.24-6.61,2.3-6.62,6.7,0,3.33,0,6.67,0,10,0,3.55-1.82,5.21-5.2,5.3s-6.68.19-10,0c-4.78-.29-6.69,2.16-6.78,6.55-.06,3,0,6,0,9,0,4.95-1.55,6.46-6.61,6.42l-8.5-.1C1.5,405.17.17,404,.15,398.59q-.14-37-.15-74c0-5.75,1.85-7.41,7.57-7.32,14,.2,14,.2,14.57,14.41.24,6.25,1.55,7.54,7.79,7.55q25.25,0,50.49,0c6.31,0,7.52-1.23,7.54-7.63,0-9.83,0-19.66,0-29.49,0-5.5,1.22-6.64,6.81-6.69,3,0,6,.12,9,0,4.53-.24,6.33,1.91,6.29,6.28-.09,8.81,0,17.62,0,27.08,4.48,0,8.74.24,13-.08,3.34-.25,4-2.83,4-5.83-.08-9.66-.06-19.33,0-29,0-6.5,1-7.44,7.57-7.59,14.17-.32,14.17-.32,14.25,13.94,0,6.54.69,7.33,7.05,7.36,15,.08,14,1,14-13.58,0-6.93.79-7.75,7.84-7.71,14.81.08,13.48.69,13.46-14.09,0-6-.94-6.91-7.06-6.92q-35.24,0-70.49,0c-6.9,0-7.74-.89-7.77-7.78,0-2.17,0-4.33,0-6.5,0-6.5.88-7.33,7.55-7.54C126.5,243,126.61,243,127,229.65c.21-7.65,0-15.32,0-23,0-3.77-1.71-5.51-5.47-5.43-3,.07-6,0-9,0-5,0-6.69-1.51-6.72-6.45-.07-10.16,0-20.33,0-30.49,0-4.11,1.7-6,6-6.1,14.78-.38,14.88-.46,15.3-15.33.2-7.16-.17-14.33-.05-21.49.07-4.17-2.15-5.67-5.83-5.77-3.16-.09-6.34-.12-9.5,0-4.29.16-6.09-1.88-5.9-6.06.11-2.33,0-4.66,0-7,0-7.95.33-8.29,8.09-8.29h106c3,0,6-.13,9-.06,3.75.09,5.3,2.3,5.26,5.86,0,2.83-.1,5.66-.12,8.49-.05,6.1-.87,7-6.89,7-15.83,0-31.66,0-47.49,0-8,0-16,0-24,0-5.53,0-6.76,1.29-6.79,6.77,0,9.83.11,19.67-.07,29.49-.08,4.52,1.9,6.37,6.24,6.39,16,.08,14.93.67,14.83-13.92,0-6.31,1.33-7.64,7.51-7.76,14.06-.28,14.06-.28,14.15,13.75,0,7,.91,7.84,7.71,7.91,13.24.14,13.24.14,13.27-12.91,0-7.65,1-8.73,8.57-8.75,9.15,0,18.31,0,27.46,0,5.77,0,6.6-.84,6.63-6.74,0-9.66.09-19.33,0-29,0-4.5,1.53-7,6.43-6.63a67.66,67.66,0,0,0,9,0c4.91-.31,6.53,2.18,6.34,6.69a33.76,33.76,0,0,0,1,10.67L339.62,0l87.54,158.41H242.59c-7.77,0-8.61.82-8.62,8.56q0,33.49,0,67c0,9.08.56,9.62,9.57,9.62H335c8.1,0,8.92.81,9,8.72q0,2,0,4c0,8.61-.93,9.29-9.36,9.25-27.32-.13-54.65-.09-82-.14-11.16,0-22.32,0-33.48-.22-4.45-.08-6.43,1.72-6.39,6.18q.14,15.25,0,30.49c0,4,1.9,5.76,5.79,5.71,3.17,0,6.33.06,9.5,0,4.21-.09,6.11,1.89,6,6.08-.11,3.16-.13,6.33,0,9.49.2,4.63-2.25,6.15-6.48,6.12-9.5-.07-19,0-28.49,0-6.74,0-7.62.81-7.57,7.38.14,16.43-.47,13.69-13.8,13.75C155.37,350.49,133.05,350.41,110,350.41ZM339.6,37.12,283.49,141H395.6ZM180.85,243.45v0c8.65,0,17.3-.07,25.95,0,3.8,0,5.61-1.76,5.62-5.37,0-17.46,0-34.93,0-52.39,0-3.87-2-6-5.77-6q-26.2-.13-52.39,0c-3.78,0-5.55,2-5.52,6.06.13,17.3.09,34.6,0,51.9,0,4.23,1.92,6,6.12,5.88C163.55,243.36,172.2,243.45,180.85,243.45Z"/></g></g></svg>