<svg xmlns="http://www.w3.org/2000/svg" viewBox="0 0 146.1 355.52"><title>Asset 8</title><g id="Layer_2" data-name="Layer 2"><g id="Layer_1-2" data-name="Layer 1"><path d="M80.08,290.64c0,4.71,0,9.21,0,13.7,0,3.26,1.25,5.09,4.74,4.83.33,0,.67,0,1,0,9.74.19,11.42,2.2,9.42,12-.28,1.36-2,2.9-3.45,3.44-1.61.61-3.63.37-5.44.16-4.84-.54-6.46,1.56-6.35,6.31.19,8.32,4.25,11.34,12.4,8.49a5.52,5.52,0,0,0,2.45-2.76,7.35,7.35,0,0,0,.22-3c.18-9,4.08-11.88,12.76-9a4.76,4.76,0,0,1,2.62,3.47c.25,7.66.37,15.34,0,23-.08,1.46-2.75,3.94-4.27,4-12.32.33-24.66.18-37,.19-3.78,0-4.63-2.09-4.61-5.5.11-18.5.05-37,.05-55.49,0-1.32,0-2.64,0-4.26-3.55-.76-6.95-1.36-10.28-2.22C22.78,280,1.72,253.32.07,219.5c-1.44-29.57,18-58.25,46.69-69,7.81-2.93,7.81-2.93,6.15-12.29H14.13c-8.21,0-9.39-1.19-9.39-9.58q0-55.24,0-110.49C4.74,10.35,6.06,9,13.61,9c3.33,0,6.67.14,10,0,4.69-.25,7.23,1.44,7.22,6.51,0,11.65.17,23.29.24,34.94,0,9.37.7,10.07,9.84,10.08H53.06c0-6.33,0-12.92,0-19.51,0-8.29,1.71-10,10-10,4.33,0,8.67.07,13,0,5.62-.12,7.81-2.22,8-7.91.16-5,0-10,.07-15C84.22,2.21,86,.33,92,.13,97.11,0,102.28,0,107.44.13c5.66.19,7.38,1.8,7.73,7.54.32,5.15.13,10.32.23,15.49.11,5.65,2.2,7.73,7.95,7.83,5,.08,10-.07,15,0,5.66.13,7.64,2.23,7.7,8.06q.09,7.5,0,15c-.08,6-2,8-8.2,8.05-15.66.08-31.33,0-47,0H85v84.54c19.43,3.83,35.29,13.74,46.77,30.19a70.25,70.25,0,0,1,12.75,44.8c-.88,17.66-7.65,32.88-19.48,45.93C115.71,277.94,106.86,282.51,80.08,290.64ZM53.34,86.85c-5.5,0-10.79,0-16.07,0-3.51,0-5.94,1.42-6.1,5.09a99.5,99.5,0,0,0,.12,14.93c.2,1.82,2.37,4.73,3.86,4.86,6,.56,12.11.23,18.19.23Z"/></g></g></svg>