<svg xmlns="http://www.w3.org/2000/svg" viewBox="0 0 114.15 160.33"><title>Asset 3</title><g id="Layer_2" data-name="Layer 2"><g id="Layer_1-2" data-name="Layer 1"><path d="M60,131.8c0,7.16-.12,14.32,0,21.47.09,4-1.56,5.78-5.59,5.76q-21.48-.11-43,0c-4.24,0-6.07-2-6.06-6.08q0-21.48,0-43c0-3.9,1.75-5.72,5.8-5.69q21.48.15,43,0c4.28,0,6,1.73,5.82,6-.22,7.15-.06,14.31-.06,21.47Z"/><path d="M29.52,59.33C12.65,59.22-.25,45.9,0,28.85.24,12.85,13.83-.11,30.27,0S60.07,13.6,59.8,29.6C59.51,46.84,46.66,59.45,29.52,59.33Z"/><path d="M83,144.61c0-15.44,0-15.44,15.41-15.44,15.76,0,15.76,0,15.76,15.51s0,15.65-15.59,15.65S83,160.33,83,144.61Z"/></g></g></svg>